<?xml version="1.0" encoding="UTF-8"?>
<svg version="1.1" xmlns="http://www.w3.org/2000/svg" width="3000" height="3000">
<path d="M0 0 C1.6460509 0.02028424 3.29231728 0.02985229 4.93847656 0.02246094 C16.39769358 -0.02716868 27.35245959 1.94564615 38.52978516 4.28271484 C39.23180054 4.42701935 39.93381592 4.57132385 40.65710449 4.72000122 C50.02500825 6.66874771 58.80038578 9.35515496 67.65478516 13.03271484 C69.4543759 13.74017775 71.25512505 14.44470248 73.05712891 15.14599609 C86.08388311 20.30625034 99.00401847 25.69226532 111.90478516 31.15771484 C123.54518542 36.08863001 135.19611191 40.90483757 147.04931641 45.30615234 C152.91487104 47.48453567 158.70747559 49.84126533 164.50878906 52.18408203 C169.36343494 54.13741935 174.23676339 55.99529354 179.15478516 57.78271484 C187.82725521 60.96029346 196.26213086 64.69378959 204.73681641 68.35888672 C216.61919937 73.48300602 228.62005836 78.2803304 240.65478516 83.03271484 C244.11461778 84.40396723 247.5729088 85.77902723 251.02978516 87.15771484 C251.84592285 87.48320312 252.66206055 87.80869141 253.50292969 88.14404297 C258.87246666 90.29487496 264.20690779 92.51920785 269.52978516 94.78271484 C277.83863144 98.3132853 286.20788248 101.68679051 294.59228516 105.03271484 C295.2454068 105.29338745 295.89852844 105.55406006 296.57144165 105.82263184 C302.71416987 108.27330099 308.85960528 110.7171316 315.00634766 113.15771484 C316.57678393 113.78240376 318.14710103 114.40739241 319.71728516 115.03271484 C320.4767041 115.3347583 321.23612305 115.63680176 322.01855469 115.94799805 C326.96299884 117.9252665 331.88355737 119.95644515 336.79541016 122.01318359 C339.35245328 123.08278941 341.90975247 124.15178016 344.46728516 125.22021484 C345.10168518 125.48541931 345.73608521 125.75062378 346.38970947 126.02386475 C353.05621869 128.80473189 359.69153632 131.50792502 366.59228516 133.65771484 C372.52976852 135.51871709 378.03048904 137.96451199 383.65478516 140.59521484 C392.49690025 144.72541334 401.47412473 148.37772743 410.59228516 151.84521484 C421.26145907 155.90558688 431.83352048 160.13563386 442.34228516 164.59521484 C452.37133705 168.85018946 462.43753162 172.96062058 472.59228516 176.90771484 C479.68836807 179.66676149 486.76665342 182.42282718 493.71728516 185.53271484 C501.89724114 189.19263077 510.19781025 192.53845072 518.50317383 195.90234375 C526.07372063 198.97164173 533.62083635 202.08797607 541.12866211 205.30786133 C546.43274077 207.56786006 551.79872628 209.64498252 557.18408203 211.703125 C563.04127737 213.9469549 568.8787193 216.24094133 574.71728516 218.53271484 C575.89355469 218.99291016 577.06982422 219.45310547 578.28173828 219.92724609 C585.77960478 222.87002399 593.23325614 225.9025644 600.65478516 229.03271484 C601.39720459 229.34547363 602.13962402 229.65823242 602.90454102 229.98046875 C604.2664436 230.55507439 605.62810143 231.13026052 606.98950195 231.70605469 C617.17936689 236.01483073 627.40066759 240.24691235 637.62597656 244.47070312 C644.29375752 247.22543978 650.95676835 249.99106827 657.61206055 252.77587891 C668.01908969 257.12912274 678.45323689 261.41272916 688.90478516 265.65771484 C689.93667465 266.0768364 689.93667465 266.0768364 690.9894104 266.50442505 C699.99791101 270.16137274 709.02239535 273.77630577 718.05957031 277.36181641 C722.84925955 279.27444692 727.57324619 281.29983733 732.27978516 283.40771484 C739.08338875 286.44686144 746.00428437 289.1317609 752.96728516 291.78271484 C771.54307376 298.8601079 789.93589353 306.34005299 808.14135742 314.32250977 C822.07292304 320.42478587 836.0843066 326.35500507 850.31884766 331.71630859 C854.66274393 333.43046907 858.93458769 335.2968904 863.21728516 337.15771484 C871.56549838 340.77868176 879.9879209 344.16878258 888.46728516 347.47021484 C904.58302931 353.75308771 920.60263651 360.22822599 936.34228516 367.40771484 C959.49046852 377.98062947 959.49046852 377.98062947 983.40478516 386.59521484 C993.2919897 389.70848686 1002.62712243 394.2093965 1012.07470703 398.43994141 C1017.87080246 401.01861888 1023.6907569 403.54177848 1029.51266479 406.06152344 C1031.40960439 406.88274377 1033.30580617 407.70564762 1035.2019043 408.52880859 C1041.67448056 411.33307917 1048.16514524 414.08510162 1054.68139648 416.78613281 C1057.77705835 418.08397742 1060.85572228 419.41645946 1063.93212891 420.75927734 C1082.54679222 428.87332563 1101.35756407 436.25125401 1120.46728516 443.12646484 C1125.07026097 444.79647874 1129.59074098 446.60766174 1134.09228516 448.53271484 C1134.88320557 448.86964355 1135.67412598 449.20657227 1136.48901367 449.55371094 C1138.24778151 450.30329495 1140.00614524 451.05382764 1141.76416016 451.80517578 C1144.87795153 453.12748516 1148.0002928 454.42820736 1151.12353516 455.72802734 C1197.45400737 475.12531486 1197.45400737 475.12531486 1216.65478516 490.03271484 C1217.69634766 490.83580078 1218.73791016 491.63888672 1219.81103516 492.46630859 C1224.5256309 496.22404418 1228.93014672 500.14915309 1233.11181641 504.48974609 C1234.82807018 506.25892326 1234.82807018 506.25892326 1237.65478516 508.47021484 C1241.41718097 511.68392793 1244.48340721 515.24667808 1247.65478516 519.03271484 C1248.63898437 520.16773438 1248.63898437 520.16773438 1249.64306641 521.32568359 C1256.50466135 529.41659536 1262.32730379 538.16927029 1268.24511719 546.95947266 C1269.85714719 549.33033493 1271.53034276 551.65221575 1273.21728516 553.97021484 C1278.27500751 561.15816016 1282.60793265 568.83873042 1287.08740234 576.39355469 C1289.05208307 579.70168532 1291.03112698 583.00103759 1293.01269531 586.29907227 C1293.99259925 587.9301074 1294.97141895 589.56179437 1295.94921875 591.1940918 C1298.69136189 595.77123937 1301.44650237 600.34002809 1304.21728516 604.89990234 C1311.51017415 616.93245091 1318.51433942 629.07935671 1325.29492188 641.40649414 C1330.47510993 650.79310439 1335.95487155 659.95444769 1341.65478516 669.03271484 C1346.98334449 677.52814616 1352.04045933 686.14668271 1357.02978516 694.84521484 C1361.60130662 702.81429872 1366.23529007 710.71491262 1371.15820312 718.47167969 C1375.40539811 725.17414607 1379.39953185 732.02004038 1383.39599609 738.87402344 C1394.32663583 757.63581819 1394.32663583 757.63581819 1405.90576172 776.0012207 C1410.15018779 782.49231627 1413.99229263 789.1317093 1417.71289062 795.93554688 C1422.31335504 804.31301196 1427.27315224 812.46512391 1432.21728516 820.64257812 C1434.39078555 824.2564655 1436.52441927 827.89328615 1438.65478516 831.53271484 C1441.68955181 836.71455617 1444.75759122 841.87424838 1447.86083984 847.01538086 C1452.97342361 855.48720515 1457.97586925 864.0151788 1462.90478516 872.59521484 C1468.15704486 881.73590651 1473.46484726 890.84033502 1478.84228516 899.90771484 C1479.850896 901.61036499 1479.850896 901.61036499 1480.87988281 903.34741211 C1483.8357318 908.32669183 1486.80457024 913.29580304 1489.83837891 918.22802734 C1495.60802307 927.62967573 1500.98334271 937.19435588 1506.09228516 946.97021484 C1506.96167725 948.6224707 1506.96167725 948.6224707 1507.84863281 950.30810547 C1513.1213411 960.53117306 1517.3492107 970.82380506 1519.90454102 982.05273438 C1520.65602877 985.03765448 1521.66856309 987.82184007 1522.72119141 990.71240234 C1525.19857418 998.69942546 1525.19101948 1006.36341545 1525.06640625 1014.64453125 C1525.02973646 1017.16105649 1525.02538955 1019.67610522 1525.02587891 1022.19287109 C1524.97413546 1034.62916034 1523.63917982 1045.554994 1519.09228516 1057.22021484 C1518.74222412 1058.12441162 1518.39216309 1059.0286084 1518.03149414 1059.96020508 C1512.74470175 1073.22339724 1505.67279933 1084.96872887 1496.65478516 1096.03271484 C1496.20522461 1096.59539062 1495.75566406 1097.15806641 1495.29248047 1097.73779297 C1491.84018641 1101.94078415 1488.19925107 1105.25112193 1483.77978516 1108.40771484 C1482.80041992 1109.11468506 1482.80041992 1109.11468506 1481.80126953 1109.8359375 C1475.45475365 1114.32608233 1468.79049014 1118.07835663 1461.95849609 1121.76806641 C1459.43372488 1123.15406841 1456.93808503 1124.58469606 1454.44384766 1126.02490234 C1430.67475165 1139.72502951 1405.9163063 1151.43016335 1381.11291504 1163.11575317 C1377.063555 1165.02384421 1373.01519823 1166.9340563 1368.96728516 1168.84521484 C1367.73422638 1169.42719635 1367.73422638 1169.42719635 1366.47625732 1170.02093506 C1355.92817651 1175.00399303 1345.44185474 1180.08360226 1335.02978516 1185.34521484 C1325.68302015 1190.06660805 1316.27816229 1194.62664371 1306.77978516 1199.03271484 C1305.11375244 1199.80675659 1305.11375244 1199.80675659 1303.4140625 1200.59643555 C1296.53379152 1203.76793153 1289.60314963 1206.78538532 1282.6159668 1209.71142578 C1278.1511637 1211.70363572 1274.78419622 1213.34038878 1272.79057449 1218.09284775 C1270.77312366 1224.58241299 1270.18763829 1230.52090345 1270.14649963 1237.29448986 C1270.12876853 1238.38452067 1270.11103743 1239.47455148 1270.09276903 1240.59761352 C1270.03823415 1244.23107436 1270.0053012 1247.86436746 1269.97338867 1251.49809265 C1269.9405825 1254.12570252 1269.90707106 1256.75330366 1269.8729105 1259.38089627 C1269.49477069 1290.18694808 1269.52471138 1320.9973025 1269.55122887 1351.80509496 C1269.55872183 1360.75753053 1269.55998869 1369.70996492 1269.56116226 1378.66240317 C1269.56346918 1395.17457901 1269.57025389 1411.68674989 1269.57962036 1428.19892311 C1269.59234694 1450.74432651 1269.59829331 1473.2897283 1269.60255373 1495.83513471 C1269.60455757 1506.39191678 1269.60688532 1516.94869878 1269.60929871 1527.50548077 C1269.60953972 1528.56132758 1269.60978073 1529.6171744 1269.61002905 1530.70501658 C1269.6158121 1555.70967659 1269.62477091 1580.7143353 1269.63427734 1605.71899414 C1269.63469099 1606.81009527 1269.63510463 1607.9011964 1269.63553081 1609.0253612 C1269.64140912 1624.5212414 1269.64742765 1640.01712155 1269.65348315 1655.51300168 C1269.66086242 1674.39872308 1269.66816998 1693.28444451 1269.67529297 1712.17016602 C1269.67570756 1713.26626212 1269.67612215 1714.36235823 1269.6765493 1715.49166937 C1269.6860045 1740.53487756 1269.6945498 1765.57808562 1269.70027161 1790.62129498 C1269.7006331 1792.20100547 1269.7006331 1792.20100547 1269.70100189 1793.8126293 C1269.70338741 1804.3270649 1269.70561543 1814.84150051 1269.70760814 1825.35593619 C1269.71191239 1847.88243623 1269.71895571 1870.40893059 1269.73165599 1892.93542756 C1269.74085614 1909.32732421 1269.74659979 1925.71921894 1269.74877334 1942.11111806 C1269.75018313 1951.83155179 1269.75440877 1961.55197476 1269.76271949 1971.27240509 C1269.76800619 1977.77776018 1269.76959815 1984.28310965 1269.7682928 1990.78846672 C1269.76765674 1994.48495142 1269.76853845 1998.18141679 1269.77398956 2001.87789796 C1269.8313173 2042.83007537 1269.8313173 2042.83007537 1267.17822266 2061.51708984 C1266.7096012 2065.1476373 1266.46598941 2068.76897539 1266.25634766 2072.42333984 C1265.58453656 2084.05447707 1264.84557524 2094.85582397 1260.97119141 2105.89599609 C1259.76921453 2109.3690223 1259.05189235 2112.85940111 1258.33447266 2116.46240234 C1256.59266875 2124.82184035 1254.00250896 2132.78701381 1251.21728516 2140.84521484 C1250.9560083 2141.60562073 1250.69473145 2142.36602661 1250.42553711 2143.1494751 C1239.55833117 2174.5844036 1223.91835399 2203.44821392 1201.99560547 2228.49658203 C1200.87090214 2229.78511687 1199.75755718 2231.08355384 1198.64697266 2232.38427734 C1194.90654028 2236.75101468 1190.91845104 2240.79563688 1186.82275391 2244.82958984 C1184.93132314 2246.75169247 1183.19300198 2248.71359341 1181.46728516 2250.78271484 C1173.77007152 2259.73005599 1164.54129379 2267.51016641 1155.30712891 2274.81005859 C1152.61072093 2276.99290505 1152.61072093 2276.99290505 1150.22119141 2279.53662109 C1140.15108798 2289.81620662 1127.37260812 2295.59989436 1114.65478516 2302.03271484 C1113.6001709 2302.57105957 1112.54555664 2303.1094043 1111.45898438 2303.6640625 C1100.06442504 2309.47570198 1088.57019934 2315.06710913 1077.00708008 2320.53466797 C1072.02529206 2322.89239577 1067.07409216 2325.29745363 1062.15478516 2327.78271484 C1054.77424925 2331.50288303 1047.34557123 2335.12227125 1039.90478516 2338.72021484 C1038.96721878 2339.17365768 1038.96721878 2339.17365768 1038.01071167 2339.63626099 C1029.12340373 2343.92923807 1020.18863759 2348.1052097 1011.21728516 2352.22021484 C998.11723133 2358.24053287 985.24215136 2364.68264343 972.36450195 2371.16210938 C963.09737912 2375.82324617 953.80182493 2380.39987634 944.41992188 2384.82666016 C936.32450822 2388.66711151 928.32653812 2392.6935735 920.32354736 2396.72177124 C907.55491796 2403.14842203 894.74359234 2409.39727998 881.74316406 2415.34301758 C873.68332156 2419.04472575 865.75175938 2422.95833957 857.84228516 2426.97021484 C844.15544349 2433.89752713 830.22940513 2440.21036693 816.21777344 2446.44580078 C811.04360958 2448.75031394 805.87831107 2451.07395335 800.71728516 2453.40771484 C799.52353271 2453.94187012 799.52353271 2453.94187012 798.30566406 2454.48681641 C792.45347424 2457.13207868 786.71450808 2459.98100783 780.97775269 2462.86521912 C773.46736895 2466.63888981 765.90828985 2470.30965102 758.34228516 2473.97021484 C757.62223297 2474.31887604 756.90218079 2474.66753723 756.16030884 2475.02676392 C739.32098217 2483.17952216 722.41051362 2491.15916766 705.42822266 2499.01025391 C697.35930014 2502.7496706 689.34256816 2506.58650538 681.34228516 2510.47021484 C674.89206127 2513.59994178 668.47850949 2516.6000201 661.77978516 2519.15771484 C656.39425164 2521.22861613 651.40430744 2523.66716106 646.34228516 2526.40771484 C637.54613642 2531.15590754 628.57659731 2535.47643797 619.52978516 2539.72021484 C618.80804108 2540.05889587 618.086297 2540.3975769 617.34268188 2540.746521 C609.14673178 2544.58640284 600.92877708 2548.37637968 592.68603516 2552.11474609 C591.95546906 2552.44609055 591.22490295 2552.777435 590.47219849 2553.11882019 C587.00714238 2554.68867228 583.53982529 2556.25321129 580.06835938 2557.80883789 C572.68747184 2561.12732346 565.41857895 2564.61332861 558.19572449 2568.26345825 C553.47247827 2570.64441958 548.71048761 2572.84464178 543.84228516 2574.90771484 C537.63710855 2577.5986633 531.66214756 2580.5601474 525.71728516 2583.78271484 C518.32175694 2587.77010905 510.78785757 2591.28822906 503.09228516 2594.65771484 C492.8244555 2599.16063759 482.61572707 2603.76651603 472.46728516 2608.53271484 C471.76631714 2608.86181854 471.06534912 2609.19092224 470.34313965 2609.52999878 C457.37505703 2615.63402504 444.57434318 2622.05716261 431.77905273 2628.51361084 C417.6051458 2635.65726265 403.27915673 2642.26507052 388.75 2648.65380859 C381.49899882 2651.8841016 374.35851367 2655.35076696 367.21044922 2658.80126953 C364.56728603 2660.07487625 361.92024959 2661.34009055 359.27197266 2662.60302734 C349.17555283 2667.41835194 339.09390318 2672.26381465 329.02212524 2677.13043213 C265.97013185 2707.59661456 265.97013185 2707.59661456 243.43505859 2717.44848633 C238.25310589 2719.72806547 233.19549237 2722.21008575 228.14648438 2724.76879883 C217.73691592 2730.03627619 207.18987028 2735.0224927 196.65478516 2740.03271484 C196.03440369 2740.32829285 195.41402222 2740.62387085 194.77484131 2740.92840576 C178.68603738 2748.59370402 162.54919693 2756.03854865 146.12402344 2762.95751953 C140.0357398 2765.5349897 134.07832197 2768.22504663 128.21728516 2771.28271484 C111.98064367 2779.63212773 95.59878301 2784.342745 77.64794922 2787.44726562 C74.65756457 2787.9942936 74.65756457 2787.9942936 71.77880859 2788.81738281 C62.14026459 2791.44167703 52.73073098 2791.55713892 42.80908203 2791.53369141 C39.92329389 2791.53272107 37.04019042 2791.57442781 34.15478516 2791.61865234 C23.53651037 2791.68529626 14.29729442 2790.7304425 4.24438477 2787.23095703 C0.81408302 2786.08588997 -2.47046201 2785.37182635 -6.03271484 2784.78271484 C-23.71020439 2781.09575254 -40.26292559 2771.8172918 -56.47753906 2764.10791016 C-65.1722619 2759.97625797 -73.90193395 2755.95863463 -82.72021484 2752.09521484 C-97.25245359 2745.71566738 -111.57493827 2738.90307241 -125.90739441 2732.08966064 C-137.79293579 2726.44057376 -149.70209606 2720.84460461 -161.65771484 2715.34521484 C-163.89087072 2714.31544682 -166.12394049 2713.28549204 -168.35693359 2712.25537109 C-171.90174468 2710.62049921 -175.44668803 2708.98591741 -178.9921875 2707.35253906 C-203.20166376 2696.19576839 -203.20166376 2696.19576839 -213.20996094 2691.1184082 C-230.04295206 2682.59223717 -247.153367 2674.61198805 -264.28149414 2666.70019531 C-271.1835664 2663.51016597 -278.05636732 2660.26753391 -284.90771484 2656.97021484 C-298.42066004 2650.48788373 -312.1674757 2644.52239745 -325.87841797 2638.47412109 C-340.3692006 2632.07103147 -354.71533365 2625.46565241 -368.94494629 2618.50411987 C-377.66832155 2614.23951767 -386.44123427 2610.16119398 -395.34521484 2606.28271484 C-412.40568951 2598.82402552 -429.05403085 2590.51461164 -445.76055908 2582.30255127 C-476.33530614 2567.20367993 -476.33530614 2567.20367993 -507.34521484 2553.03271484 C-522.48887647 2546.38427803 -537.52702978 2539.58696939 -552.41162109 2532.37646484 C-560.82008894 2528.30748945 -569.27072187 2524.32811789 -577.72021484 2520.34521484 C-578.9015802 2519.78832474 -578.9015802 2519.78832474 -580.10681152 2519.22018433 C-580.88770142 2518.85208649 -581.66859131 2518.48398865 -582.47314453 2518.10473633 C-584.00732743 2517.38151723 -585.54150719 2516.65829146 -587.07568359 2515.93505859 C-587.81388336 2515.58712753 -588.55208313 2515.23919647 -589.31265259 2514.88072205 C-593.11558413 2513.08745901 -596.91540612 2511.28814146 -600.70849609 2509.47412109 C-607.70552917 2506.12877954 -614.72729143 2502.8489393 -621.79443359 2499.65380859 C-622.47030014 2499.34822021 -623.14616669 2499.04263184 -623.84251404 2498.7277832 C-626.68494719 2497.44292521 -629.52741538 2496.15814532 -632.37020874 2494.87408447 C-642.43594776 2490.32285555 -652.41843788 2485.62901137 -662.34521484 2480.78271484 C-675.19888112 2474.51267617 -688.21853431 2468.70437166 -701.34521484 2463.03271484 C-718.53392507 2455.58604876 -735.52669249 2447.78253381 -752.46888733 2439.79620361 C-758.99753831 2436.72080718 -765.5428235 2433.68223811 -772.09521484 2430.65771484 C-773.04388428 2430.21886963 -773.99255371 2429.78002441 -774.9699707 2429.32788086 C-779.55681515 2427.21283375 -784.15019758 2425.11555478 -788.76708984 2423.06689453 C-802.58694934 2416.92293343 -816.1531163 2410.31951549 -829.70898438 2403.61669922 C-842.09739753 2397.49760599 -854.55198302 2391.60815726 -867.17980957 2385.99981689 C-872.30202979 2383.71215752 -877.38290392 2381.33420995 -882.47021484 2378.97021484 C-889.79797386 2375.57411027 -897.13681892 2372.21523191 -904.53271484 2368.97021484 C-917.83800395 2363.11533427 -930.94479988 2356.79645378 -943.90771484 2350.22021484 C-959.6068149 2342.28306059 -975.6191945 2334.68004351 -991.90771484 2328.03271484 C-1004.23457895 2322.96926438 -1016.15090429 2317.01819101 -1028.10113525 2311.13525391 C-1030.50535434 2309.95403669 -1032.91214006 2308.77816562 -1035.31933594 2307.60302734 C-1039.74714967 2305.44027437 -1044.16852949 2303.2647859 -1048.58633423 2301.08166504 C-1050.31413974 2300.22956366 -1052.04356343 2299.380734 -1053.77474976 2298.53552246 C-1077.24614303 2287.06175201 -1096.65171181 2272.19009919 -1115.34521484 2254.03271484 C-1116.13186523 2253.2732959 -1116.91851563 2252.51387695 -1117.72900391 2251.73144531 C-1127.71687179 2242.05779805 -1137.261354 2232.37173102 -1145.34521484 2221.03271484 C-1145.74385742 2220.47358398 -1146.1425 2219.91445312 -1146.55322266 2219.33837891 C-1148.78431606 2216.18594328 -1150.9706117 2213.00599603 -1153.12939453 2209.8034668 C-1154.04225302 2208.47395624 -1154.97307096 2207.15674799 -1155.91259766 2205.84594727 C-1175.91366444 2177.85620593 -1192.5761162 2144.57053043 -1199.49365234 2110.75146484 C-1200.12708444 2107.98528433 -1200.83730581 2105.65715086 -1201.82177734 2103.03271484 C-1204.0900669 2096.41206559 -1204.58704713 2089.4513272 -1205.34521484 2082.53271484 C-1205.51336847 2081.05768016 -1205.68240616 2079.582746 -1205.85229492 2078.10791016 C-1206.10888869 2075.87638154 -1206.36444412 2073.64477018 -1206.61592102 2071.41265869 C-1207.11864814 2066.95283557 -1207.65701421 2062.49958012 -1208.23193359 2058.04833984 C-1208.36792969 2056.98164063 -1208.50392578 2055.91494141 -1208.64404297 2054.81591797 C-1208.8885659 2052.90765607 -1209.13787327 2050.99999506 -1209.39404297 2049.09326172 C-1211.89802685 2029.07586457 -1211.4942317 2008.79062124 -1211.48381616 1988.65578487 C-1211.48283004 1984.56605407 -1211.48769609 1980.47632921 -1211.49179518 1976.38660091 C-1211.49818914 1969.2383816 -1211.50100957 1962.09016809 -1211.50142097 1954.94194603 C-1211.50206916 1944.31268054 -1211.50848431 1933.6834239 -1211.51616777 1923.05416145 C-1211.52821166 1906.26211261 -1211.53689012 1889.47006419 -1211.54320592 1872.67801229 C-1211.55325893 1846.0397879 -1211.57252131 1819.40157621 -1211.59474831 1792.76335947 C-1211.60327626 1782.50494139 -1211.61154321 1772.24652309 -1211.61985207 1761.98810482 C-1211.62077707 1760.84863119 -1211.62170208 1759.70915756 -1211.62265512 1758.53515443 C-1211.6446199 1731.44441738 -1211.66442581 1704.35367895 -1211.68310547 1677.26293945 C-1211.68392515 1676.07827499 -1211.68474483 1674.89361053 -1211.68558935 1673.67304715 C-1211.70469121 1646.00855452 -1211.72165307 1618.34406198 -1211.73394775 1590.67956543 C-1211.73447742 1589.48809096 -1211.73500709 1588.29661649 -1211.73555281 1587.06903673 C-1211.73980503 1577.46338081 -1211.74398102 1567.85772485 -1211.74813761 1558.25206888 C-1211.76532183 1518.67623525 -1211.79250918 1479.10041915 -1211.83129798 1439.52460058 C-1211.83675982 1433.94084342 -1211.84209276 1428.35708615 -1211.84733963 1422.77332878 C-1211.84837401 1421.67443889 -1211.84940839 1420.57554901 -1211.85047412 1419.44335943 C-1211.86681383 1401.74074408 -1211.87232862 1384.03814098 -1211.87363729 1366.33551881 C-1211.87513897 1348.56587061 -1211.88725546 1330.79625582 -1211.9103937 1313.02662236 C-1211.92380669 1302.46316684 -1211.92877301 1291.89978419 -1211.92184734 1281.33632202 C-1211.91803926 1274.28809295 -1211.92500569 1267.23992869 -1211.94086312 1260.19171655 C-1211.94959308 1256.17134687 -1211.95350166 1252.15112703 -1211.94428925 1248.13075501 C-1211.93600404 1244.47592606 -1211.94141198 1240.82138714 -1211.95789684 1237.16658831 C-1211.96306459 1235.22792754 -1211.95348288 1233.28924473 -1211.94336081 1231.35060349 C-1211.9895039 1224.64662186 -1212.11498264 1219.4495805 -1216.95092773 1214.33422852 C-1222.82377892 1210.03467531 -1229.11244055 1207.20509727 -1235.78271484 1204.34521484 C-1238.38296984 1203.20917695 -1240.97933341 1202.06436282 -1243.57568359 1200.91943359 C-1244.61367599 1200.46316589 -1244.61367599 1200.46316589 -1245.67263794 1199.99768066 C-1254.70636194 1196.01414136 -1263.64587688 1191.82638534 -1272.59521484 1187.65771484 C-1287.4634733 1180.73687019 -1287.4634733 1180.73687019 -1302.38818359 1173.93896484 C-1303.09696655 1173.61964996 -1303.80574951 1173.30033508 -1304.53601074 1172.97134399 C-1305.93347723 1172.34196748 -1307.33095827 1171.71262327 -1308.72845459 1171.08331299 C-1321.40464746 1165.37173843 -1333.89003802 1159.36940902 -1346.29052734 1153.07568359 C-1351.15933948 1150.6101967 -1356.06861261 1148.24861737 -1361.00805664 1145.9284668 C-1411.44212914 1122.22822844 -1411.44212914 1122.22822844 -1429.34521484 1104.03271484 C-1430.08642578 1103.29021484 -1430.82763672 1102.54771484 -1431.59130859 1101.78271484 C-1456.05833428 1076.00116958 -1466.33000455 1044.061205 -1465.44140625 1009.10058594 C-1464.93153308 992.83899654 -1462.58678159 979.10381503 -1456.34521484 964.03271484 C-1456.04341309 963.28070801 -1455.74161133 962.52870117 -1455.43066406 961.75390625 C-1450.5894548 949.76752296 -1444.34992344 938.71836274 -1437.82373047 927.58154297 C-1435.56166899 923.68195218 -1433.39163098 919.73325236 -1431.22021484 915.78271484 C-1424.0674893 902.84417202 -1416.54026937 890.19567917 -1408.48828125 877.79833984 C-1402.54457293 868.61745592 -1396.89787237 859.31387259 -1391.53271484 849.78271484 C-1387.05426498 841.84272737 -1382.28565263 834.16372763 -1377.27392578 826.55102539 C-1368.32173591 812.95078815 -1359.8725093 799.09128581 -1351.86669922 784.91455078 C-1346.78421 775.95507734 -1341.34323751 767.23041298 -1335.8828125 758.49804688 C-1323.0854393 737.9791719 -1310.77321 717.15663378 -1298.47192383 696.33837891 C-1293.6155771 688.13613095 -1288.6827672 679.98345262 -1283.72021484 671.84521484 C-1274.71139252 657.06728179 -1265.93557046 642.15621307 -1257.40771484 627.09521484 C-1251.26006459 616.28746141 -1244.76055292 605.68271657 -1238.34521484 595.03271484 C-1236.30205933 591.63777463 -1234.26042981 588.24192296 -1232.22021484 584.84521484 C-1231.74116699 584.04809082 -1231.26211914 583.2509668 -1230.76855469 582.4296875 C-1227.61636583 577.17603941 -1224.49748042 571.90355708 -1221.39135742 566.62255859 C-1200.91495891 531.82614261 -1200.91495891 531.82614261 -1188.49755859 518.36865234 C-1186.56549006 516.27177942 -1184.6987674 514.1362601 -1182.84521484 511.97021484 C-1176.46023328 504.67727719 -1169.59024764 498.25315134 -1162.01318359 492.21240234 C-1159.62153191 490.25846144 -1157.39680863 488.21915524 -1155.15771484 486.09521484 C-1142.15555129 474.58887541 -1125.67297527 467.36420924 -1110.25610352 459.69995117 C-1107.77501047 458.46627872 -1105.29830227 457.22445279 -1102.82543945 455.97436523 C-1089.26187432 449.11780583 -1075.77114389 442.632768 -1061.35539246 437.74740601 C-1057.7953611 436.48168554 -1054.32249521 435.00805995 -1050.84521484 433.53271484 C-1050.01707275 433.18208984 -1049.18893066 432.83146484 -1048.33569336 432.47021484 C-1047.25952759 432.00615234 -1047.25952759 432.00615234 -1046.16162109 431.53271484 C-1042.18625474 429.82287985 -1038.20821269 428.11954668 -1034.22775269 426.4216156 C-1013.69617938 417.67135531 -1013.69617938 417.67135531 -993.27563477 408.66625977 C-987.64363545 406.14496969 -981.96255734 403.75115984 -976.26855469 401.3737793 C-969.44914792 398.51795709 -962.669625 395.57304008 -955.89193726 392.6199646 C-945.23305793 387.9761388 -934.54290057 383.43809759 -923.78271484 379.03271484 C-903.9522674 370.89476724 -884.49494415 361.95819288 -865.02856445 352.98999023 C-857.30292537 349.44250951 -849.52335777 346.03040147 -841.71582031 342.66748047 C-836.31138051 340.33655441 -830.94102555 337.94612038 -825.59228516 335.49023438 C-818.43063066 332.2062923 -811.26752761 329.17933013 -803.84521484 326.53271484 C-796.59158838 323.94324979 -789.59162131 320.99901911 -782.5925293 317.78833008 C-774.95085999 314.28489619 -767.25012584 310.92721438 -759.53271484 307.59521484 C-758.22777223 307.03135678 -756.92284058 306.46747333 -755.61791992 305.90356445 C-753.68488857 305.0683403 -751.75180648 304.23323467 -749.81855774 303.39851379 C-744.11369054 300.93480806 -738.41668986 298.45324192 -732.72021484 295.97021484 C-724.27540547 292.29260033 -715.81326347 288.65646812 -707.34521484 285.03271484 C-684.87907744 275.42987316 -684.87907744 275.42987316 -662.55224609 265.50927734 C-661.87409348 265.20180573 -661.19594086 264.89433411 -660.49723816 264.57754517 C-657.16760501 263.0668899 -653.84008363 261.55183868 -650.51586914 260.02929688 C-643.07447028 256.63389125 -635.57436213 253.47196475 -627.96582031 250.47070312 C-622.41017293 248.2641783 -616.90898705 245.93335028 -611.40771484 243.59521484 C-610.2772876 243.11568359 -609.14686035 242.63615234 -607.98217773 242.14208984 C-598.49958738 238.11254898 -589.05370071 234.00687873 -579.63476562 229.83105469 C-568.41920994 224.85966615 -557.19562557 219.93914504 -545.84521484 215.28271484 C-536.11190641 211.28100853 -526.53483748 206.97991729 -516.97021484 202.59521484 C-505.02246993 197.11898759 -493.00998311 191.85585812 -480.88427734 186.78271484 C-474.22361945 183.99367903 -467.59715681 181.1287369 -460.9744873 178.25100708 C-459.04952477 177.41501523 -457.12376076 176.58089717 -455.19775391 175.74731445 C-449.55672216 173.30449411 -443.92171398 170.85005091 -438.30615234 168.34912109 C-437.38487549 167.94322754 -436.46359863 167.53733398 -435.5144043 167.11914062 C-433.87357789 166.39592914 -432.23614344 165.66492277 -430.60375977 164.92285156 C-425.85171696 162.84090623 -421.14683041 161.42525493 -416.11083984 160.16552734 C-408.51580388 158.24942225 -401.62320611 155.30389613 -394.53271484 151.97021484 C-391.98578217 150.79667018 -389.4348764 149.63185875 -386.88427734 148.46630859 C-385.93020744 148.0283345 -385.93020744 148.0283345 -384.9568634 147.58151245 C-378.82589475 144.77401698 -372.62779455 142.13640201 -366.40771484 139.53271484 C-357.1221128 135.62942159 -347.84438924 131.70915563 -338.59521484 127.72021484 C-337.97411835 127.4524826 -337.35302185 127.18475037 -336.71310425 126.90890503 C-326.22094911 122.375455 -315.87222111 117.56552494 -305.53903198 112.68264771 C-297.47790285 108.87992098 -289.42881834 105.35250941 -281.02880859 102.36865234 C-268.85976514 97.95527709 -257.08160287 92.49347096 -245.32250977 87.1027832 C-237.26668226 83.42240991 -229.15954225 79.86516035 -221.03271484 76.34521484 C-220.38481995 76.0645517 -219.73692505 75.78388855 -219.06939697 75.49472046 C-211.05226433 72.02592597 -203.01027452 68.62952425 -194.91381836 65.35009766 C-190.53143315 63.56118669 -186.24426367 61.62437148 -181.97021484 59.59521484 C-176.50338038 57.00006104 -170.98855291 54.56041647 -165.40771484 52.22021484 C-164.61067139 51.88578369 -163.81362793 51.55135254 -162.99243164 51.20678711 C-158.66950102 49.40085532 -154.33676974 47.62155664 -149.99365234 45.86474609 C-137.89601293 40.93989445 -126.06679241 35.59348826 -114.28271484 29.97021484 C-101.94811928 24.0899344 -89.57782853 18.60872679 -76.73242188 13.91601562 C-74.53429056 13.10267557 -72.35942093 12.24703612 -70.18505859 11.37255859 C-47.8087327 2.60909191 -23.85603173 -0.35333032 0 0 Z M-27.34521484 241.03271484 C-28.47483643 241.48485352 -29.60445801 241.93699219 -30.76831055 242.40283203 C-34.42124424 243.91673703 -38.04241835 245.49437021 -41.65771484 247.09521484 C-42.97158392 247.67065203 -44.28563327 248.24567777 -45.59985352 248.8203125 C-54.83089156 252.86863846 -63.99528198 257.05750777 -73.14379883 261.28881836 C-80.685075 264.76494016 -88.30843915 267.96469197 -96.00341797 271.08105469 C-112.97688161 277.97873622 -129.64825537 285.42582603 -146.25708008 293.15002441 C-160.18322551 299.62288177 -174.19418548 305.81372592 -188.34960938 311.77148438 C-192.8753764 313.67695401 -197.39274687 315.60181788 -201.90771484 317.53271484 C-203.15415771 318.06493652 -203.15415771 318.06493652 -204.42578125 318.60791016 C-210.29026892 321.12270675 -216.11918935 323.711969 -221.94238281 326.32080078 C-232.32662185 330.97277299 -242.74881021 335.47973475 -253.28271484 339.78271484 C-266.21038825 345.06421805 -278.96966774 350.6879526 -291.70043945 356.42626953 C-299.71913162 360.03231393 -307.77600266 363.44432533 -315.95507812 366.66992188 C-320.65650421 368.55983693 -325.2514022 370.64721275 -329.84521484 372.78271484 C-337.47418618 376.29065554 -345.13532456 379.70643108 -352.84521484 383.03271484 C-360.23730912 386.22451577 -367.58874346 389.4892514 -374.90771484 392.84521484 C-383.22235098 396.64370198 -391.56368973 400.37902553 -399.93795776 404.04403687 C-401.22707708 404.60927609 -402.51514868 405.17691236 -403.80203247 405.7472229 C-410.05268434 408.51447559 -416.22317163 411.0835002 -422.79443359 412.98583984 C-429.6840114 415.01129528 -436.06236158 417.90144978 -442.5425415 420.94473267 C-446.13675785 422.63090757 -449.74474878 424.28705031 -453.35302734 425.94287109 C-454.09475189 426.28358139 -454.83647644 426.62429169 -455.60067749 426.97532654 C-463.49267428 430.58464021 -471.47118182 433.98128833 -479.47021484 437.34521484 C-480.15816132 437.6347403 -480.84610779 437.92426575 -481.55490112 438.2225647 C-484.25603611 439.35919847 -486.95721248 440.49573245 -489.65885925 441.63114929 C-496.73118115 444.60751599 -503.76580165 447.66942967 -510.79296875 450.75073242 C-515.23395113 452.69468842 -519.68866211 454.58995827 -524.17333984 456.43115234 C-530.64235623 459.11534222 -536.95410887 462.09826681 -543.28271484 465.09521484 C-554.23733454 470.24770242 -565.30312542 475.0014478 -576.51855469 479.56420898 C-586.17101287 483.50344131 -595.68768677 487.68348055 -605.16577148 492.02514648 C-611.14097706 494.73205531 -617.09807097 497.02657616 -623.3425293 499.03173828 C-628.53667668 500.76326152 -633.58737187 502.84655485 -638.65771484 504.90771484 C-640.87775312 505.80358238 -643.09780512 506.69941594 -645.31787109 507.59521484 C-646.36861816 508.02060547 -647.41936523 508.44599609 -648.50195312 508.88427734 C-650.75803884 509.79554535 -653.01622408 510.70026155 -655.27880859 511.59521484 C-665.08766476 515.47716499 -674.82828212 519.52450564 -684.57128906 523.56811523 C-695.38330771 528.0552133 -695.38330771 528.0552133 -700.47021484 530.11865234 C-708.20935499 533.25916053 -715.8129819 536.58606089 -723.36083984 540.16162109 C-728.69994706 542.68436272 -734.09381797 545.08499027 -739.48291016 547.49853516 C-743.75815913 549.41480563 -748.0278311 551.34111615 -752.28271484 553.30224609 C-775.55228338 564.01317095 -799.0567837 574.24778086 -823.06933594 583.1796875 C-826.99149575 584.64976113 -830.8926921 586.16724417 -834.78271484 587.72021484 C-835.46350098 587.98189453 -836.14428711 588.24357422 -836.84570312 588.51318359 C-841.4945879 590.39199532 -844.75600173 592.60714366 -848.34521484 596.03271484 C-849.26212922 598.57731418 -849.26212922 598.57731418 -848.34521484 601.03271484 C-845.21349804 603.85729304 -842.24833853 605.72611194 -838.34521484 607.28271484 C-837.28431641 607.70939453 -836.22341797 608.13607422 -835.13037109 608.57568359 C-832.37693384 609.64634109 -829.6111798 610.68117842 -826.84130859 611.70849609 C-812.05716083 617.20790631 -797.7011848 623.50404788 -783.34521484 630.03271484 C-782.65897034 630.34478882 -781.97272583 630.65686279 -781.26568604 630.97839355 C-779.07981114 631.97274504 -776.89412788 632.96751663 -774.70849609 633.96240234 C-773.97635895 634.29555954 -773.2442218 634.62871674 -772.48989868 634.9719696 C-768.91222857 636.60043604 -765.33582191 638.23154874 -761.76220703 639.86889648 C-755.00467657 642.95943203 -748.22338426 645.96075148 -741.3503418 648.7878418 C-735.58954068 651.17425214 -729.87721108 653.67433808 -724.15771484 656.15771484 C-722.8402529 656.72892772 -721.52278867 657.30013531 -720.20532227 657.87133789 C-711.84297211 661.49969893 -703.49639019 665.16272868 -695.15771484 668.84521484 C-682.89285158 674.25775022 -670.56213207 679.49555559 -658.15234375 684.56665039 C-649.71799842 688.01506241 -641.35603511 691.61419589 -633.0078125 695.26611328 C-626.85202396 697.95550572 -620.67315227 700.57923889 -614.47021484 703.15771484 C-608.76753607 705.53373308 -603.15827766 708.0346222 -597.59521484 710.72021484 C-589.65003616 714.54010492 -581.54152042 717.95260572 -573.40771484 721.34521484 C-572.73788574 721.62463928 -572.06805664 721.90406372 -571.37792969 722.19195557 C-567.99491285 723.6023232 -564.61094398 725.01039113 -561.2265625 726.41748047 C-543.25952753 733.89027379 -525.42046557 741.61621816 -507.65478516 749.55517578 C-493.39765284 755.92019236 -479.10777015 762.16877665 -464.66943359 768.11206055 C-455.2137016 772.03157904 -445.88886934 776.22827431 -436.57861328 780.47949219 C-429.87489929 783.52328451 -423.13410373 786.32199143 -416.24633789 788.92211914 C-412.55238001 790.33622453 -408.94564535 791.89780924 -405.34521484 793.53271484 C-403.80746692 794.22414887 -402.26970548 794.91555285 -400.73193359 795.60693359 C-399.88808105 795.98769043 -399.04422852 796.36844727 -398.17480469 796.76074219 C-394.97145749 798.20072829 -391.76212085 799.62687124 -388.55224609 801.05224609 C-377.12294235 806.13694838 -365.73053667 811.26773545 -354.47021484 816.72021484 C-340.36242219 823.53976246 -326.06697204 829.92499634 -311.40771484 835.47021484 C-301.18626479 839.34472582 -291.32789416 843.98700217 -281.42431641 848.60205078 C-276.49190338 850.89383165 -271.54259772 853.14848395 -266.59521484 855.40771484 C-260.201004 858.33019643 -253.81803023 861.27421418 -247.45458984 864.26318359 C-234.56198414 870.31203853 -221.62190138 876.11157677 -208.44677734 881.51708984 C-201.84289017 884.22736809 -195.27948737 887.0289459 -188.72021484 889.84521484 C-187.55490234 890.34545166 -186.38958984 890.84568848 -185.18896484 891.36108398 C-175.93705024 895.33857216 -166.69648359 899.34213556 -157.45840454 903.35162354 C-147.12581225 907.83614353 -136.77776395 912.28326043 -126.4206543 916.7109375 C-118.94336495 919.91023933 -111.48426077 923.14897626 -104.03271484 926.40771484 C-97.98499589 929.05198891 -91.9304809 931.62998531 -85.78271484 934.03271484 C-77.8724472 937.14808978 -70.17796008 940.70313561 -62.45068359 944.24365234 C-55.78677082 947.29507474 -49.10109851 950.29656531 -42.40771484 953.28271484 C-40.79364746 954.0070874 -40.79364746 954.0070874 -39.14697266 954.74609375 C-32.94631024 957.50813828 -26.7036082 960.11530761 -20.39117432 962.6111908 C-15.13317721 964.69793189 -9.91726312 966.87699013 -4.70849609 969.08349609 C-3.88662308 969.43143219 -3.06475006 969.77936829 -2.2179718 970.1378479 C1.16953607 971.57327073 4.55613782 973.01080503 7.94165039 974.45092773 C10.45303089 975.5184956 12.96590892 976.58247177 15.47900391 977.64599609 C16.24250656 977.97199295 17.00600922 978.29798981 17.79264832 978.63386536 C24.45274228 981.44813218 29.63470614 982.26174429 36.77978516 982.34521484 C37.58416016 982.37421875 38.38853516 982.40322266 39.21728516 982.43310547 C45.83254471 982.50179427 50.7187438 980.84497348 56.65478516 978.03271484 C57.51653351 977.62537613 57.51653351 977.62537613 58.39569092 977.20980835 C63.21193875 974.92369584 67.99738787 972.57612104 72.77978516 970.22021484 C86.94096347 963.24572027 101.20198099 956.67497641 115.90478516 950.90771484 C118.31654822 949.95654096 120.72691967 949.00231422 123.13427734 948.04003906 C124.80385741 947.37278922 126.47637891 946.71284915 128.15185547 946.06054688 C139.01696059 941.70787738 149.42109192 936.34406056 159.90478516 931.15771484 C172.70699175 924.82487598 185.49918194 918.60006254 198.65478516 913.03271484 C199.63108887 912.61521973 200.60739258 912.19772461 201.61328125 911.76757812 C203.32944209 911.03423238 205.04641757 910.30278851 206.7644043 909.57373047 C214.8566245 906.13934937 222.86588594 902.58793597 230.81494141 898.83349609 C242.21838297 893.45959806 253.76912834 888.40282217 265.34228516 883.40771484 C285.62478108 874.63728265 305.68781256 865.36382351 325.71728516 856.03271484 C338.69807552 849.99222002 351.73137524 844.22733346 364.97460938 838.78466797 C366.24303048 838.26325456 367.51142214 837.74176954 368.77978516 837.22021484 C369.41047913 836.96087158 370.0411731 836.70152832 370.690979 836.43432617 C382.47825713 831.58031999 394.09274604 826.40028107 405.65478516 821.03271484 C419.02591181 814.83799627 432.44392038 808.79021041 445.98266602 802.97006226 C456.09936928 798.61735748 466.14059669 794.1159642 476.15478516 789.53271484 C486.7757628 784.67346233 497.42914386 779.90665259 508.15478516 775.28271484 C509.08652054 774.88101074 509.08652054 774.88101074 510.03707886 774.47119141 C513.08629039 773.15706919 516.13588946 771.84384891 519.18554688 770.53076172 C524.53876482 768.21919625 529.87992285 765.88062568 535.21728516 763.53271484 C536.22025635 763.0915332 537.22322754 762.65035156 538.2565918 762.19580078 C544.37166933 759.49878979 550.47152377 756.76934372 556.56466675 754.02316284 C570.78246204 747.61556544 585.06762165 741.39896407 599.453125 735.37548828 C604.8594024 733.10810032 610.25665658 730.81941928 615.65478516 728.53271484 C622.22187934 725.75156705 628.79046424 722.97420174 635.36572266 720.21240234 C647.54802425 715.08980281 659.66450607 709.85817862 671.69091797 704.37988281 C675.25674616 702.75910522 678.82659005 701.1473354 682.39697266 699.53662109 C683.08050308 699.228228 683.76403351 698.9198349 684.46827698 698.60209656 C685.86146424 697.97353747 687.25465783 697.34499239 688.64785767 696.71646118 C694.31809237 694.15799469 699.98692994 691.59644804 705.65478516 689.03271484 C706.62826904 688.5927417 707.60175293 688.15276855 708.60473633 687.69946289 C713.27390704 685.5841179 717.92959688 683.44288623 722.57275391 681.27099609 C736.15778931 674.92210223 749.83596312 668.9167148 763.71337891 663.23730469 C796.43152156 649.83829109 829.1865053 636.09068643 860.98339844 620.62109375 C868.30212235 617.10212017 875.78455706 614.04721058 883.37475586 611.1628418 C888.64071853 609.10327183 892.62789887 607.04654801 896.65478516 603.03271484 C897.489043 600.44445777 897.489043 600.44445777 896.65478516 598.03271484 C893.93916105 595.64037932 891.327438 594.3817193 887.92041016 593.22802734 C886.96956543 592.89851074 886.0187207 592.56899414 885.0390625 592.22949219 C884.00475098 591.87580566 882.97043945 591.52211914 881.90478516 591.15771484 C871.49823351 587.50436741 861.24585818 583.55884404 851.02978516 579.40771484 C850.04371277 579.00966644 850.04371277 579.00966644 849.03771973 578.60357666 C840.64983143 575.21312434 832.41459791 571.58101006 824.23535156 567.71533203 C818.91280313 565.21410444 813.53958708 562.83378115 808.15478516 560.47021484 C807.0694751 559.99334229 805.98416504 559.51646973 804.8659668 559.02514648 C798.15353997 556.0896814 791.41667309 553.27396922 784.59619141 550.59912109 C779.54383552 548.60863855 774.5398424 546.50182714 769.52978516 544.40771484 C768.50908936 543.98192139 767.48839355 543.55612793 766.43676758 543.11743164 C762.06251499 541.29244793 757.68875703 539.46633547 753.31787109 537.63330078 C739.92130303 532.01762618 726.49072199 526.54385071 712.93539429 521.32437134 C682.40673589 509.5682988 652.2322965 496.93563353 622.19702148 483.97583008 C613.98229742 480.43459208 605.73496111 477.00222398 597.41088867 473.72509766 C592.0526279 471.61069848 586.75294605 469.38469448 581.46728516 467.09521484 C569.94757611 462.10811309 558.34326993 457.3271247 546.74298096 452.53146362 C536.08645399 448.12551691 525.44651861 443.68829543 514.84228516 439.15771484 C504.89727351 434.91446737 494.85840757 430.94417103 484.78295898 427.0222168 C470.27715468 421.35672886 456.03708827 415.1200551 441.8215332 408.76806641 C436.9172091 406.58007619 431.98577798 404.47573679 427.01806641 402.43505859 C424.29769183 401.3007793 421.58987187 400.14512226 418.88525391 398.97412109 C399.19972281 390.38453204 399.19972281 390.38453204 378.96728516 383.22021484 C370.05855982 380.32761371 361.5702666 376.29220222 353.01220703 372.51269531 C347.0268142 369.87428262 341.02965816 367.26298517 335.02978516 364.65771484 C334.40097443 364.38447388 333.7721637 364.11123291 333.1242981 363.82971191 C322.49681814 359.21600638 311.8108811 354.75826344 301.09375 350.35717773 C292.51057437 346.82490254 283.98279238 343.18109506 275.4987793 339.41674805 C269.78502616 336.89707926 264.01263917 334.59464424 258.17626953 332.37426758 C237.33514606 324.43458556 216.59491662 316.22427652 196.26025391 307.05615234 C194.80856824 306.40220174 193.35674513 305.74855616 191.90478516 305.09521484 C191.18637451 304.77166016 190.46796387 304.44810547 189.7277832 304.11474609 C183.40022294 301.29727956 176.97492535 298.75475942 170.52978516 296.22021484 C162.08141926 292.89738359 153.80860364 289.3302212 145.59228516 285.47021484 C136.73039283 281.31509281 127.77762547 277.72426711 118.58422852 274.37402344 C111.66760827 271.83644505 104.89596793 269.06667618 98.15478516 266.09521484 C96.7325061 265.46836792 96.7325061 265.46836792 95.28149414 264.82885742 C93.36292476 263.98265484 91.44438637 263.13638199 89.52587891 262.29003906 C75.89139575 256.31915571 62.09079889 250.74659376 48.22436523 245.33978271 C46.86036975 244.80786953 45.49691136 244.27457667 44.1340332 243.73980713 C42.2158657 242.98842795 40.2951628 242.24394353 38.37353516 241.50146484 C37.26945312 241.07285156 36.16537109 240.64423828 35.02783203 240.20263672 C28.26442119 237.85678664 22.17818785 236.71804984 15.01806641 236.69677734 C13.81611885 236.68679214 13.81611885 236.68679214 12.58988953 236.67660522 C10.90329255 236.66654174 9.21665626 236.66178624 7.5300293 236.66210938 C4.99084402 236.65775524 2.45342745 236.62142286 -0.08544922 236.58349609 C-9.85797356 236.51235248 -18.17006259 237.33004272 -27.34521484 241.03271484 Z M-1073.94287109 748.81005859 C-1079.63168569 757.19916385 -1084.76205031 765.92655484 -1089.92871094 774.64355469 C-1091.78757314 777.77882279 -1093.65849944 780.90659633 -1095.53271484 784.03271484 C-1095.87230225 784.59966064 -1096.21188965 785.16660645 -1096.56176758 785.75073242 C-1099.13530331 790.03920499 -1101.73005242 794.3146552 -1104.32958984 798.58740234 C-1104.68863403 799.17768723 -1105.04767822 799.76797211 -1105.41760254 800.37614441 C-1108.43084669 805.32988491 -1108.43084669 805.32988491 -1109.91796875 807.77200317 C-1114.19521729 814.79747628 -1118.42313533 821.84496007 -1122.53271484 828.97021484 C-1127.29182502 837.18029213 -1132.58539681 845.01853711 -1137.88818359 852.88427734 C-1141.01427753 857.52288592 -1144.0706354 862.20245193 -1147.09521484 866.90771484 C-1150.02288799 871.46128557 -1152.97612057 875.99220953 -1156.00415039 880.47973633 C-1164.71296776 893.39172514 -1172.73106451 906.74285969 -1180.84521484 920.03271484 C-1198.91438989 949.6275226 -1198.91438989 949.6275226 -1206.27514648 960.41625977 C-1210.37646354 966.44791721 -1212.54424084 970.64516759 -1211.34521484 978.03271484 C-1206.12588433 986.90557672 -1194.8229987 990.93688144 -1185.78271484 994.97021484 C-1184.76532227 995.43057129 -1183.74792969 995.89092773 -1182.69970703 996.36523438 C-1180.46072962 997.37807337 -1178.22060577 998.38838091 -1175.97949219 999.39648438 C-1170.04858326 1002.06670819 -1164.12721059 1004.75790231 -1158.20562744 1007.44873047 C-1156.79224739 1008.090979 -1155.37879457 1008.73306741 -1153.965271 1009.375 C-1139.7199323 1015.84501068 -1125.5162712 1022.40133437 -1111.34521484 1029.03271484 C-1110.68307983 1029.34251282 -1110.02094482 1029.65231079 -1109.33874512 1029.97149658 C-1093.7588003 1037.26323314 -1078.20152393 1044.59606215 -1062.72021484 1052.09521484 C-1055.33752571 1055.6709295 -1047.94454215 1059.15333672 -1040.3996582 1062.37182617 C-1028.85723514 1067.34095754 -1017.61495936 1073.01834039 -1006.3125 1078.50488281 C-996.1601716 1083.43053626 -986.00784512 1088.24218898 -975.59521484 1092.59521484 C-968.90334958 1095.3944793 -962.4692288 1098.44600677 -956.09521484 1101.90771484 C-944.84009698 1108.01514314 -933.10709827 1112.99248647 -921.34521484 1118.03271484 C-919.81638873 1118.68854474 -918.28772288 1119.34474847 -916.75927734 1120.00146484 C-916.16195801 1120.25734375 -915.56463867 1120.51322266 -914.94921875 1120.77685547 C-909.16920919 1123.29364124 -903.48789857 1125.91164391 -897.86474609 1128.75927734 C-889.80672665 1132.81269568 -881.71207342 1136.78610239 -873.59521484 1140.72021484 C-872.88933228 1141.06243073 -872.18344971 1141.40464661 -871.45617676 1141.75723267 C-851.53167982 1151.40796948 -831.44176414 1160.67391971 -811.21881104 1169.68093872 C-803.14744312 1173.2795623 -795.18233337 1177.00503332 -787.31396484 1181.02490234 C-771.88954439 1188.8884886 -756.08765796 1196.02819094 -740.36083984 1203.25927734 C-734.8099566 1205.81337533 -729.27916345 1208.4074158 -723.75830078 1211.02563477 C-719.68890435 1212.94894439 -715.60206621 1214.82911482 -711.50146484 1216.68505859 C-702.04640183 1220.96848193 -692.67005022 1225.25072316 -683.57421875 1230.25756836 C-678.69453505 1232.9172896 -673.70003208 1235.14677561 -668.59399414 1237.32324219 C-663.38106447 1239.55208092 -658.26625411 1241.94995679 -653.15771484 1244.40771484 C-646.88823512 1247.41478142 -640.5746107 1250.23156947 -634.15771484 1252.90771484 C-610.21587476 1262.96807279 -586.9642445 1274.77454049 -563.60205078 1286.10131836 C-554.30710004 1290.5966011 -544.95115255 1294.95231634 -535.57836914 1299.2824707 C-527.99462583 1302.790332 -520.438386 1306.34982683 -512.90771484 1309.97021484 C-511.89878174 1310.45490234 -510.88984863 1310.93958984 -509.8503418 1311.43896484 C-504.89631412 1313.82422294 -499.94958339 1316.22348731 -495.01345825 1318.64559937 C-480.17332874 1325.92539708 -465.24423062 1332.75854167 -449.92089844 1338.97607422 C-444.29141796 1341.28549521 -438.73565008 1343.76457932 -433.17236328 1346.22802734 C-430.74450274 1347.29727218 -428.30745583 1348.34509196 -425.87182617 1349.39648438 C-407.38171799 1357.40593681 -389.16552382 1366.05251533 -370.99755859 1374.76318359 C-368.18856444 1376.10769478 -365.37653989 1377.44571179 -362.56396484 1378.78271484 C-361.58919189 1379.24693848 -360.61441895 1379.71116211 -359.61010742 1380.18945312 C-357.6575894 1381.11913135 -355.70431278 1382.04721821 -353.75024414 1382.97363281 C-349.1909676 1385.14612439 -344.67092669 1387.36225553 -340.20849609 1389.72802734 C-339.40565186 1390.14882568 -338.60280762 1390.56962402 -337.77563477 1391.00317383 C-336.29722632 1391.78363196 -334.82644238 1392.57881232 -333.3659668 1393.39233398 C-328.35014613 1396.02951805 -323.99637651 1396.8689634 -318.34521484 1396.03271484 C-311.35819311 1392.89327602 -307.4927616 1384.92852056 -303.63427734 1378.64990234 C-301.53821747 1375.26864095 -299.21463368 1372.12084509 -296.78271484 1368.97021484 C-293.81691666 1365.10209296 -291.14279722 1361.19128567 -288.63427734 1357.01318359 C-284.38320804 1350.00793685 -279.85786068 1343.20407799 -275.28271484 1336.40771484 C-270.99748192 1330.03179399 -266.71684252 1323.65889419 -262.62255859 1317.15771484 C-259.90177552 1312.85375289 -257.03081265 1308.72477957 -253.97021484 1304.65771484 C-249.67582377 1298.87859631 -245.53648324 1293.02063533 -241.46240234 1287.08349609 C-239.44591383 1284.177818 -237.37788963 1281.3194895 -235.28271484 1278.47021484 C-231.81754586 1273.74248924 -228.57284088 1268.89333555 -225.34521484 1264.00146484 C-223.40834259 1261.12642009 -221.39925563 1258.32492653 -219.34521484 1255.53271484 C-213.85549716 1248.05552598 -208.77358438 1240.32654995 -203.84521484 1232.47021484 C-200.90936276 1227.83117092 -197.76521759 1223.39289715 -194.50927734 1218.97412109 C-186.30672656 1207.82516669 -178.3836865 1196.47028199 -170.61865234 1185.01318359 C-169.67372711 1183.62359725 -168.72841312 1182.23427519 -167.78271484 1180.84521484 C-167.32082764 1180.16410645 -166.85894043 1179.48299805 -166.38305664 1178.78125 C-163.68291367 1174.84132847 -160.83578381 1171.16104293 -157.72021484 1167.53271484 C-154.23859119 1163.26144458 -152.87385746 1160.59473197 -153.34521484 1155.03271484 C-157.04616174 1150.47108262 -161.16392915 1148.39076011 -166.40771484 1146.09521484 C-167.93832717 1145.40397583 -169.46827337 1144.71125998 -170.99755859 1144.01708984 C-171.74247559 1143.68128906 -172.48739258 1143.34548828 -173.25488281 1142.99951172 C-176.04425461 1141.70940283 -178.75280128 1140.27971343 -181.47021484 1138.84521484 C-185.64598533 1136.72791742 -189.7657466 1135.19303555 -194.23583984 1133.81005859 C-201.77738196 1131.38276392 -208.82736106 1128.20956715 -215.94924927 1124.76071167 C-219.44821317 1123.06747373 -222.96161632 1121.4046651 -226.47412109 1119.73974609 C-227.16305954 1119.41253067 -227.85199799 1119.08531525 -228.56181335 1118.7481842 C-234.75283129 1115.81742743 -241.02124882 1113.10024993 -247.33740234 1110.45117188 C-254.44080104 1107.45771544 -261.45171998 1104.27386349 -268.46331787 1101.07342529 C-278.9868286 1096.27173947 -289.54099857 1091.64533147 -300.28271484 1087.34521484 C-311.90858328 1082.6911224 -323.27501897 1077.58706894 -334.62255859 1072.29541016 C-338.66033673 1070.42279641 -342.72004453 1068.60053864 -346.78271484 1066.78271484 C-352.92866817 1064.02952141 -359.0633068 1061.25259141 -365.18896484 1058.45458984 C-383.51554998 1050.06873808 -383.51554998 1050.06873808 -401.97021484 1041.97021484 C-402.71843506 1041.64923828 -403.46665527 1041.32826172 -404.23754883 1040.99755859 C-407.69176409 1039.53174064 -411.15667706 1038.10681759 -414.64916992 1036.73413086 C-424.52319223 1032.8525556 -434.1570613 1028.55362293 -443.78271484 1024.09521484 C-446.73878881 1022.72985042 -449.69592506 1021.36681064 -452.65380859 1020.00537109 C-453.37984787 1019.67091476 -454.10588715 1019.33645844 -454.85392761 1018.99186707 C-459.73889589 1016.74910177 -464.6490211 1014.57160056 -469.57958984 1012.43115234 C-476.83413651 1009.28152706 -484.00066247 1005.96077309 -491.15771484 1002.59521484 C-499.78933296 998.55617617 -508.44967224 994.63053642 -517.25683594 990.98779297 C-527.03583698 986.94014423 -536.70389354 982.6393746 -546.37792969 978.34814453 C-549.03846613 977.16869988 -551.70140582 975.9948706 -554.36474609 974.82177734 C-563.67056703 970.6992356 -572.85442328 966.35349385 -582.00405884 961.89718628 C-595.18615832 955.47825889 -608.45426441 949.51988088 -622.10302734 944.16162109 C-632.12520515 940.22015789 -641.94659652 935.99547794 -651.71240234 931.45361328 C-659.92504177 927.64655007 -668.2148271 924.0386817 -676.53271484 920.47021484 C-685.0055093 916.83197209 -693.42438829 913.12561641 -701.72021484 909.09521484 C-710.68454759 904.74085139 -719.77534197 900.70620302 -728.90771484 896.72021484 C-729.58735291 896.42325714 -730.26699097 896.12629944 -730.96722412 895.82034302 C-737.39664742 893.01398479 -743.83270086 890.23274804 -750.32568359 887.57568359 C-757.69905614 884.52072654 -764.8866036 881.07845992 -772.09521484 877.65771484 C-780.79034223 873.53390744 -789.50355424 869.48737092 -798.3327179 865.65774536 C-805.13737903 862.70219124 -811.88201959 859.62041928 -818.62362671 856.52426147 C-822.42014081 854.78073804 -826.2187581 853.04180522 -830.01708984 851.30224609 C-831.17998787 850.76945793 -831.17998787 850.76945793 -832.36637878 850.22590637 C-840.41402431 846.54015901 -848.47276806 842.87896374 -856.53271484 839.22021484 C-866.84530168 834.53855647 -877.14727502 829.83498341 -887.43579102 825.10058594 C-892.84473671 822.61777607 -898.26729385 820.1676197 -903.70458984 817.74755859 C-904.64803253 817.32748535 -904.64803253 817.32748535 -905.61053467 816.89892578 C-906.2413092 816.61807129 -906.87208374 816.3372168 -907.52197266 816.04785156 C-908.79640585 815.48034894 -910.07081997 814.9128035 -911.34521484 814.34521484 C-911.97085327 814.06663635 -912.5964917 813.78805786 -913.24108887 813.5010376 C-920.81449992 810.12407923 -928.29277837 806.64089336 -935.66455078 802.84619141 C-942.63296689 799.30033249 -949.84847686 796.33456332 -957.04443359 793.28662109 C-973.29354023 786.39971832 -989.22523471 778.82666997 -1005.15405273 771.23583984 C-1006.63941195 770.52961307 -1008.12500576 769.82387949 -1009.61083984 769.11865234 C-1010.70638687 768.59862137 -1010.70638687 768.59862137 -1011.82406616 768.06808472 C-1016.73286739 765.75331499 -1021.68772004 763.57303495 -1026.67724609 761.43896484 C-1034.71301947 757.98702307 -1042.24687003 753.79653859 -1049.80419922 749.39990234 C-1058.14846834 744.71001767 -1066.52254678 740.55517457 -1073.94287109 748.81005859 Z M1108.61572266 753.34912109 C1101.40640212 756.62966154 1094.08928167 759.64762628 1086.76611328 762.66357422 C1079.97721385 765.50078715 1073.38750633 768.60475982 1066.82846069 771.92822266 C1059.32407974 775.72677652 1051.71210259 779.28554376 1044.09228516 782.84521484 C1041.08520298 784.25285071 1038.0788036 785.66193804 1035.07275391 787.07177734 C1034.34001251 787.41530746 1033.60727112 787.75883759 1032.85232544 788.11277771 C1027.74882961 790.50913384 1022.6687774 792.95088649 1017.59716797 795.4140625 C1008.11466345 800.01429819 998.52411937 804.31078496 988.84228516 808.47021484 C968.08848234 817.38925579 947.70461471 826.98145601 927.41778564 836.90786743 C917.72355614 841.6455442 908.00974676 846.16896502 898.01025391 850.23193359 C892.99471029 852.27606924 888.07754294 854.52597614 883.15478516 856.78271484 C874.78699267 860.61876 866.38735951 864.37534712 857.96728516 868.09521484 C850.22994261 871.51729252 842.53046454 874.9933636 834.90478516 878.65771484 C827.40457403 882.25893981 819.8125533 885.60130826 812.16967773 888.88745117 C802.87401436 892.90060714 793.67101064 897.10699563 784.46426392 901.31869507 C774.59951337 905.82755048 764.6892724 910.20429108 754.71728516 914.47021484 C743.83018967 919.13259811 733.09901875 924.06930302 722.40478516 929.15771484 C711.52670498 934.33336721 700.60212213 939.27219797 689.47216797 943.88964844 C680.0784073 947.80395692 670.82674629 951.9984562 661.57540894 956.23492432 C649.91711613 961.57235728 638.20697602 966.78079056 626.4647522 971.9307251 C617.87080042 975.70174544 609.32514661 979.54587735 600.86376953 983.60742188 C596.16244477 985.84538127 591.38261337 987.70210261 586.50634766 989.51708984 C577.87899083 992.83203483 569.48337349 996.77221497 561.04150391 1000.52685547 C557.73715716 1001.99608923 554.43064976 1003.46034857 551.12353516 1004.92333984 C537.53135 1010.94275057 523.97434513 1017.0375622 510.43408203 1023.17260742 C504.1556654 1026.01525762 497.86757571 1028.82431565 491.52978516 1031.53271484 C484.04959385 1034.77139108 476.73550009 1038.34730448 469.40478516 1041.90771484 C453.77489426 1049.49520473 438.1013265 1056.73748722 421.92626953 1063.09375 C416.03258071 1065.42887651 410.30247911 1067.99867184 404.59082031 1070.74511719 C397.73181397 1074.03241951 390.79316062 1077.13261753 383.84228516 1080.22021484 C382.72136475 1080.7194043 381.60044434 1081.21859375 380.44555664 1081.73291016 C375.1586934 1084.07708169 369.8599087 1086.37665813 364.51416016 1088.58349609 C358.84815212 1090.92864422 353.27915578 1093.4518762 347.71728516 1096.03271484 C338.7418474 1100.17206875 329.74120648 1104.25018657 320.71728516 1108.28271484 C309.97525914 1113.08780613 299.24492663 1117.91793539 288.52978516 1122.78271484 C287.82498016 1123.10261383 287.12017517 1123.42251282 286.39401245 1123.75210571 C278.32078702 1127.41918786 270.27341502 1131.13197661 262.27978516 1134.97021484 C256.42529286 1137.77806016 250.52347011 1140.41060754 244.52978516 1142.90771484 C236.78247965 1146.1370592 229.04846191 1149.39363891 221.34228516 1152.72021484 C219.74006104 1153.39769775 219.74006104 1153.39769775 218.10546875 1154.08886719 C212.58898025 1156.48447375 207.86260154 1158.67613728 203.65478516 1163.03271484 C202.74396809 1167.23648591 202.64991494 1169.3802616 204.88525391 1173.05615234 C206.04791444 1174.54192756 207.24725788 1175.99933778 208.47119141 1177.43505859 C210.97585633 1180.41466892 213.22718492 1183.54131016 215.46728516 1186.72021484 C216.32389152 1187.92736282 217.1806646 1189.13439251 218.03759766 1190.34130859 C218.4684668 1190.94958496 218.89933594 1191.55786133 219.34326172 1192.18457031 C221.07648906 1194.62696253 222.82011307 1197.06183907 224.5637207 1199.49682617 C228.35035948 1204.78597314 232.10683185 1210.09476314 235.82666016 1215.43115234 C237.58372376 1217.93158901 239.36068528 1220.41705276 241.14282227 1222.8996582 C245.19488669 1228.54464097 249.17647657 1234.2298135 253.09228516 1239.97021484 C257.18374964 1245.9658146 261.41535945 1251.83823909 265.74047852 1257.66699219 C268.50083517 1261.40447062 271.12059057 1265.19843906 273.65478516 1269.09521484 C277.04451279 1274.27377205 280.78837412 1279.06505961 284.65429688 1283.88793945 C288.06970678 1288.18721893 291.0418566 1292.63793667 293.91259766 1297.32177734 C295.85561005 1300.34520919 297.9740119 1303.17641587 300.15478516 1306.03271484 C303.66323655 1310.63163086 306.79400951 1315.34035408 309.84228516 1320.25146484 C311.82096363 1323.28771284 313.95682307 1326.15160238 316.15478516 1329.03271484 C319.63272822 1333.5956823 322.75504713 1338.25825142 325.78369141 1343.12646484 C327.93258174 1346.46419847 330.21024015 1349.68734997 332.52978516 1352.90771484 C332.95855957 1353.50358398 333.38733398 1354.09945312 333.82910156 1354.71337891 C334.69165509 1355.91167629 335.55428477 1357.10991887 336.41699219 1358.30810547 C341.59347918 1365.52047315 346.55495387 1372.84754886 351.35864258 1380.3112793 C355.97178954 1387.47867417 360.62783303 1394.58438286 365.65478516 1401.47021484 C366.08710449 1402.06624512 366.51942383 1402.66227539 366.96484375 1403.27636719 C371.88593735 1410.05287849 371.88593735 1410.05287849 378.90478516 1414.15771484 C384.69496087 1413.96470899 388.55134335 1411.1171862 393.2668457 1407.94995117 C399.39748427 1403.94500737 405.93502246 1400.99128844 412.59228516 1397.97021484 C415.10146223 1396.82083407 417.60863566 1395.66711498 420.11572266 1394.51318359 C420.74758987 1394.22287262 421.37945709 1393.93256165 422.0304718 1393.63345337 C429.34109108 1390.26862047 436.58910304 1386.77524041 443.83666992 1383.27709961 C448.47065731 1381.04119235 453.10648319 1378.81217778 457.76806641 1376.63427734 C465.58246186 1372.98286803 473.29495623 1369.22041484 480.90478516 1365.15771484 C495.34818617 1357.46115869 510.11862437 1350.4904957 525.15478516 1344.03271484 C542.94914936 1336.38532673 560.24353212 1327.75974501 577.53640747 1319.05349731 C587.66114376 1313.96102049 597.86420847 1309.09524247 608.18676758 1304.41333008 C617.0292708 1300.38225968 625.70806027 1296.05781416 634.328125 1291.57104492 C639.89102189 1288.72420405 645.47107403 1286.2970332 651.35009766 1284.18505859 C659.43704773 1281.26368466 667.00660018 1277.55862609 674.64608765 1273.63067627 C678.56736751 1271.61602225 682.50365322 1269.63112586 686.43994141 1267.64599609 C687.22548904 1267.24938782 688.01103668 1266.85277954 688.82038879 1266.44415283 C695.92888475 1262.86812067 703.11095617 1259.47815512 710.34228516 1256.15771484 C712.04396851 1255.37605957 712.04396851 1255.37605957 713.7800293 1254.57861328 C716.00259934 1253.5579322 718.22517409 1252.53726136 720.44775391 1251.51660156 C725.60201233 1249.13173686 730.72436998 1246.6819238 735.84228516 1244.22021484 C736.84291992 1243.73891113 737.84355469 1243.25760742 738.87451172 1242.76171875 C744.80284996 1239.90371214 750.72235091 1237.02776308 756.63916016 1234.14599609 C759.45666726 1232.77448852 762.27444522 1231.40353843 765.09228516 1230.03271484 C765.79259857 1229.69177795 766.49291199 1229.35084106 767.21444702 1228.99957275 C777.71110615 1223.89308993 788.27265595 1218.95922309 798.89501953 1214.11865234 C805.41853324 1211.12546252 811.75258519 1207.91503949 818.04199219 1204.46240234 C824.53776182 1200.96287113 831.27055543 1198.0450696 838.02978516 1195.09521484 C846.90763013 1191.21986279 855.56154995 1187.13879688 864.08496094 1182.53857422 C871.03079493 1178.79352286 878.12786243 1175.4524825 885.28662109 1172.13818359 C889.88421372 1169.9920084 894.45489899 1167.78925825 899.02978516 1165.59521484 C902.90448618 1163.74042324 906.77958183 1161.88645675 910.65478516 1160.03271484 C911.48800293 1159.63407227 912.3212207 1159.23542969 913.1796875 1158.82470703 C922.35689292 1154.43927241 931.57050793 1150.15225971 940.84228516 1145.97021484 C949.1825804 1142.20221303 957.40024804 1138.25527149 965.55322266 1134.09960938 C969.61838062 1132.03586166 973.70057399 1130.00600166 977.77978516 1127.97021484 C984.42652034 1124.65415557 984.42652034 1124.65415557 991.05322266 1121.29833984 C999.99884681 1116.74666206 1009.10464209 1112.56405188 1018.21777344 1108.36035156 C1028.04111621 1103.81966605 1037.78275481 1099.12103725 1047.5105896 1094.37979126 C1055.75327894 1090.36492131 1064.03179997 1086.45792741 1072.40478516 1082.72021484 C1078.88277165 1079.82147295 1085.2164281 1076.76831663 1091.46728516 1073.40771484 C1111.4233505 1062.68260009 1132.05555391 1053.17949018 1152.61743164 1043.68359375 C1169.03928437 1036.09596229 1185.31194895 1028.23447615 1201.46728516 1020.09521484 C1210.91184509 1015.33692692 1220.42225887 1010.76500652 1230.02978516 1006.34521484 C1243.06635476 1000.32908836 1243.06635476 1000.32908836 1256.02978516 994.15771484 C1256.92101074 993.74175049 1257.81223633 993.32578613 1258.73046875 992.8972168 C1264.09381349 990.26562039 1268.81493091 987.47673661 1271.65478516 982.03271484 C1272.77297491 977.32913443 1272.15234366 973.41968233 1269.84619141 969.20068359 C1268.98930516 967.86123954 1268.11148217 966.53504415 1267.21728516 965.22021484 C1266.21024843 963.65889262 1265.20517883 962.09630057 1264.20166016 960.53271484 C1263.36151367 959.24107422 1263.36151367 959.24107422 1262.50439453 957.92333984 C1259.26387214 952.85895428 1256.17786607 947.69993462 1253.07272339 942.5519104 C1247.3169528 933.01467972 1241.50261232 923.51375769 1235.65478516 914.03271484 C1235.11990479 913.16364502 1234.58502441 912.2945752 1234.03393555 911.39916992 C1227.92498933 901.47472169 1221.75368272 891.59583715 1215.46728516 881.78271484 C1210.90754021 874.66150463 1206.51184825 867.4756662 1202.2734375 860.15942383 C1197.0164071 851.13611436 1191.21813539 842.45799584 1185.48681641 833.73193359 C1180.56473609 826.16873701 1175.90163246 818.47072383 1171.27978516 810.72021484 C1165.28581418 800.67489453 1159.12243974 790.77904178 1152.65478516 781.03271484 C1152.23390625 780.39720703 1151.81302734 779.76169922 1151.37939453 779.10693359 C1149.31010647 775.98551904 1147.23298935 772.86953574 1145.14697266 769.75927734 C1143.38927606 767.13741489 1141.64682419 764.50609637 1139.91259766 761.86865234 C1139.23596069 760.84312256 1139.23596069 760.84312256 1138.5456543 759.796875 C1137.68273041 758.48845338 1136.82239007 757.17832288 1135.96508789 755.86621094 C1132.46930658 750.350186 1132.46930658 750.350186 1127.09228516 747.09521484 C1120.42814615 746.97404868 1114.56433923 750.61307515 1108.61572266 753.34912109 Z M-1000.34521484 1325.03271484 C-1001.27345738 1327.81744244 -1001.46556437 1329.43859483 -1001.4526453 1332.3090086 C-1001.45115294 1333.18884175 -1001.44966057 1334.0686749 -1001.44812298 1334.97516966 C-1001.44131921 1335.94489855 -1001.43451544 1336.91462745 -1001.42750549 1337.91374207 C-1001.42427654 1338.94659002 -1001.42104759 1339.97943797 -1001.41772079 1341.04358435 C-1001.40557225 1344.54284552 -1001.38618512 1348.04203091 -1001.36694336 1351.54125977 C-1001.3567804 1354.06546509 -1001.34708581 1356.58967233 -1001.33782101 1359.11388111 C-1001.31664656 1364.63238477 -1001.29242857 1370.15086258 -1001.26573181 1375.66934204 C-1001.22595911 1383.91716786 -1001.1929001 1392.16501132 -1001.16157289 1400.41287307 C-1001.14658605 1404.35742623 -1001.1313632 1408.30197846 -1001.11609459 1412.24653053 C-1001.11301018 1413.04340105 -1001.10992577 1413.84027156 -1001.10674789 1414.66128967 C-1001.07421298 1423.02211229 -1001.03936623 1431.38292503 -1001.00445502 1439.74373801 C-1000.85580105 1475.36869135 -1000.72302944 1510.9936983 -1000.60459599 1546.61876491 C-1000.59833039 1548.50235724 -1000.59204411 1550.38594951 -1000.58573738 1552.26954171 C-1000.37663989 1614.73368446 -1000.3096637 1677.19705798 -1000.34195638 1739.6615293 C-1000.34525259 1746.03977238 -1000.3480846 1752.41801561 -1000.35087395 1758.79625893 C-1000.36794945 1797.17252074 -1000.39096228 1835.54876957 -1000.44341116 1873.92500098 C-1000.46607047 1890.53172503 -1000.48215054 1907.13844481 -1000.4920193 1923.74518144 C-1000.49822677 1933.65380295 -1000.51061655 1943.5623746 -1000.53181938 1953.47097559 C-1000.54557098 1960.13340925 -1000.55198644 1966.79582491 -1000.55274829 1973.45827262 C-1000.55341588 1977.25006635 -1000.55715429 1981.04178146 -1000.57016003 1984.83355463 C-1001.10302092 2040.10901318 -1001.10302092 2040.10901318 -974.54614258 2086.91064453 C-973.1476764 2088.28654378 -971.74654634 2089.65973399 -970.34521484 2091.03271484 C-969.16291014 2092.41532737 -967.99385309 2093.80950865 -966.84521484 2095.22021484 C-944.07813787 2120.86650061 -902.16133987 2135.38633518 -870.78759766 2148.06640625 C-862.70834995 2151.34919831 -854.90325386 2155.08291311 -847.08374023 2158.93151855 C-834.26907657 2165.23542743 -821.39787964 2171.3887344 -808.42333984 2177.35668945 C-801.64969988 2180.47867026 -794.92169532 2183.67929112 -788.21850586 2186.94970703 C-776.91233174 2192.46491392 -765.51055361 2197.61074686 -753.92236328 2202.50463867 C-737.46209897 2209.48035979 -721.21692343 2216.983037 -705.27783203 2225.08105469 C-690.53376052 2232.52296756 -675.39502875 2239.19543869 -660.06591797 2245.33300781 C-652.31068545 2248.48271101 -644.89912392 2252.19785937 -637.43920898 2255.9781189 C-631.96005487 2258.73757921 -626.43636156 2261.40778592 -620.91796875 2264.08764648 C-619.5354281 2264.75970129 -618.15359136 2265.43320611 -616.77246094 2266.1081543 C-607.87581263 2270.45583289 -598.91711193 2274.59088887 -589.828125 2278.52075195 C-585.94311252 2280.20727111 -582.10901244 2281.96740935 -578.28271484 2283.78271484 C-577.60265381 2284.10433594 -576.92259277 2284.42595703 -576.22192383 2284.75732422 C-572.07067863 2286.7243105 -567.9296563 2288.71225321 -563.79052734 2290.70458984 C-551.08942424 2296.81438486 -538.32302865 2302.6951099 -525.39794922 2308.31396484 C-503.43326246 2317.86500838 -503.43326246 2317.86500838 -493.21069336 2323.12792969 C-488.12291362 2325.71724033 -482.92318716 2327.95587167 -477.65771484 2330.15771484 C-468.77476605 2333.874322 -460.1162073 2337.99057235 -451.47021484 2342.22021484 C-443.00211749 2346.35951179 -434.56966811 2350.34483484 -425.75537109 2353.70458984 C-420.26068888 2355.84455772 -414.9080048 2358.29130299 -409.53271484 2360.71240234 C-405.69321766 2362.44017608 -401.83601314 2364.12245601 -397.97021484 2365.79052734 C-387.35321646 2370.39672293 -376.92167041 2375.07780468 -366.84521484 2380.78271484 C-347.56192142 2391.66639187 -326.98114262 2400.52312555 -306.41186523 2408.67114258 C-298.2342961 2411.96363124 -290.34038515 2415.81461197 -282.42895508 2419.69100952 C-273.35331961 2424.13720684 -264.21574084 2428.38419129 -254.97021484 2432.47021484 C-243.28350037 2437.64074895 -231.7630873 2443.09984907 -220.29882812 2448.74536133 C-213.38988457 2452.13833886 -206.4311463 2455.34880607 -199.36660767 2458.40507507 C-192.14614172 2461.53464815 -185.02365303 2464.86100786 -177.90771484 2468.22021484 C-177.19877075 2468.55398132 -176.48982666 2468.8877478 -175.75939941 2469.23162842 C-162.4387547 2475.50631265 -149.20706336 2481.95853303 -135.98452759 2488.4367981 C-124.40046545 2494.11019942 -112.78759875 2499.71071786 -101.09521484 2505.15771484 C-100.46860962 2505.45002991 -99.84200439 2505.74234497 -99.19641113 2506.04351807 C-88.66153287 2511.94422056 -88.66153287 2511.94422056 -77.34521484 2512.03271484 C-74.47203086 2507.54302156 -73.91569703 2503.65188541 -73.97261935 2498.44588864 C-73.9687851 2497.69726617 -73.96495084 2496.9486437 -73.96100039 2496.1773357 C-73.95179145 2493.66159469 -73.96400951 2491.14641585 -73.97607136 2488.63069344 C-73.97385267 2486.8040068 -73.97031716 2484.97732138 -73.96558186 2483.15063953 C-73.95635206 2478.10668956 -73.96591883 2473.06292023 -73.97841626 2468.01898367 C-73.98869868 2462.5408909 -73.98161033 2457.06281687 -73.9766838 2451.58472049 C-73.9704543 2441.97576543 -73.97540799 2432.36686601 -73.98759842 2422.7579174 C-74.005675 2408.46968609 -74.00661354 2394.1814887 -74.00397245 2379.89324818 C-73.99974852 2355.86025004 -74.01004744 2331.82727566 -74.02802467 2307.79428482 C-74.04578736 2283.99127205 -74.057349 2260.18826945 -74.06058311 2236.38525009 C-74.06068635 2235.64623161 -74.06078959 2234.90721313 -74.06089595 2234.14580015 C-74.06183554 2227.39608145 -74.06269861 2220.64636274 -74.06346987 2213.89664402 C-74.06538815 2197.11701847 -74.06826617 2180.33739316 -74.07179546 2163.55776787 C-74.07195542 2162.7936304 -74.07211537 2162.02949293 -74.07228017 2161.24219979 C-74.0801462 2124.06429472 -74.09906948 2086.88639638 -74.11889648 2049.70849609 C-74.12577142 2036.80568446 -74.13259749 2023.9028728 -74.13922119 2011.00006104 C-74.13963204 2010.19983581 -74.14004289 2009.39961058 -74.14046618 2008.57513611 C-74.15949572 1971.38003695 -74.17067432 1934.18493664 -74.17982558 1896.98983389 C-74.18041977 1894.57532847 -74.18101735 1892.16082305 -74.18161561 1889.74631763 C-74.18557493 1873.74536766 -74.18939888 1857.74441766 -74.19313219 1841.74346764 C-74.20056185 1809.90509638 -74.2087869 1778.06672535 -74.21755833 1746.22835445 C-74.21797605 1744.7121018 -74.21839322 1743.19584915 -74.21880982 1741.6795965 C-74.24130621 1659.82324158 -74.27755981 1577.96689365 -74.34521484 1439.03271484 C-76.6826335 1441.34699387 -78.88661586 1443.58823071 -80.82568359 1446.24755859 C-81.26299805 1446.84479736 -81.7003125 1447.44203613 -82.15087891 1448.05737305 C-82.60688477 1448.68861084 -83.06289062 1449.31984863 -83.53271484 1449.97021484 C-84.25346191 1450.96057739 -84.25346191 1450.96057739 -84.98876953 1451.97094727 C-89.54388884 1458.25493456 -93.95162121 1464.63517296 -98.34521484 1471.03271484 C-100.07250392 1473.50724419 -101.80620897 1475.97717191 -103.54052734 1478.44677734 C-104.85600028 1480.33171908 -106.16202342 1482.22326609 -107.46240234 1484.11865234 C-111.15999367 1489.50510891 -114.89985654 1494.82264238 -118.84521484 1500.03271484 C-125.03350047 1508.21930103 -130.84038603 1516.62319567 -136.34521484 1525.28271484 C-145.55923735 1539.75104949 -154.97608416 1554.23184334 -165.80566406 1567.55004883 C-168.41382618 1570.77328658 -170.69267173 1574.05311925 -172.84521484 1577.59521484 C-176.98059781 1584.32013524 -182.17350233 1590.10400076 -187.34521484 1596.03271484 C-189.41592174 1598.42159568 -191.4761799 1600.81913306 -193.53271484 1603.22021484 C-194.01450195 1603.77306152 -194.49628906 1604.3259082 -194.99267578 1604.89550781 C-197.55900054 1607.58103952 -197.55900054 1607.58103952 -198.34521484 1611.03271484 C-198.90466797 1611.28279297 -199.46412109 1611.53287109 -200.04052734 1611.79052734 C-202.71586083 1613.23248675 -204.85746349 1614.99367591 -207.22021484 1616.90771484 C-212.98788659 1621.29199669 -219.04590576 1624.82560632 -225.40771484 1628.28271484 C-226.3169873 1628.77755371 -227.22625977 1629.27239258 -228.16308594 1629.78222656 C-245.71069508 1639.16933032 -245.71069508 1639.16933032 -255.28271484 1640.72021484 C-255.96962402 1640.83341064 -256.6565332 1640.94660645 -257.36425781 1641.06323242 C-259.35715064 1641.39104447 -261.35115752 1641.71206241 -263.34521484 1642.03271484 C-264.78960938 1642.34208984 -264.78960938 1642.34208984 -266.26318359 1642.65771484 C-281.63998995 1645.85289539 -297.79847193 1644.60424132 -313.06542969 1641.4609375 C-314.75057088 1641.14440959 -316.44593095 1640.88122958 -318.14453125 1640.64746094 C-325.53779225 1639.6045618 -331.71246414 1637.53825153 -338.47021484 1634.40771484 C-339.95726929 1633.73893311 -339.95726929 1633.73893311 -341.47436523 1633.05664062 C-343.48501823 1632.15170947 -345.49328952 1631.24146595 -347.49902344 1630.32568359 C-350.08041804 1629.15300682 -352.67098897 1628.00713461 -355.27099609 1626.87646484 C-364.45721763 1622.87658193 -373.4517021 1618.58222059 -382.37744141 1614.03271484 C-385.69132128 1612.34863892 -389.01888799 1610.6920307 -392.34521484 1609.03271484 C-396.31351081 1607.05122172 -400.28029935 1605.06699864 -404.23974609 1603.06787109 C-410.55957187 1599.88346276 -416.89600019 1596.76229736 -423.31323242 1593.77807617 C-430.20390285 1590.57072384 -436.89322275 1587.21724937 -443.47021484 1583.40771484 C-455.30050017 1576.61251602 -467.88975077 1571.32786388 -480.32363892 1565.75317383 C-489.16999837 1561.77777087 -497.90145823 1557.56688956 -506.63134766 1553.34326172 C-511.36237747 1551.05861184 -516.1045702 1548.79732605 -520.84521484 1546.53271484 C-522.78534422 1545.6043821 -524.7254485 1544.67599693 -526.66552734 1543.74755859 C-530.26243176 1542.02706164 -533.86129138 1540.31079454 -537.46240234 1538.59912109 C-546.61761924 1534.24183457 -555.75037554 1529.84227011 -564.85693359 1525.38427734 C-565.70629486 1524.96854462 -566.55565613 1524.55281189 -567.43075562 1524.1244812 C-568.29552521 1523.70119537 -569.1602948 1523.27790955 -570.05126953 1522.84179688 C-583.64125033 1516.19006215 -597.23043685 1509.55790879 -610.97021484 1503.22021484 C-626.14680901 1496.21579714 -641.14093383 1488.8432495 -656.13867188 1481.46508789 C-658.04990176 1480.52525704 -659.96119702 1479.5855591 -661.87255859 1478.64599609 C-662.82031662 1478.18001511 -663.76807465 1477.71403412 -664.74455261 1477.2339325 C-671.41462181 1473.96154687 -678.11219996 1470.75050942 -684.82177734 1467.56005859 C-697.56194513 1461.4956504 -710.15708773 1455.14980974 -722.74829102 1448.78320312 C-733.36489353 1443.41933818 -743.96650709 1438.15732211 -754.92431641 1433.52246094 C-759.92214544 1431.34598701 -764.75793891 1428.87300448 -769.61474609 1426.39990234 C-775.64905686 1423.35674275 -781.75139168 1420.45426229 -787.84521484 1417.53271484 C-802.18210891 1410.65322771 -802.18210891 1410.65322771 -809.22021484 1407.09521484 C-817.12852111 1403.09795293 -825.12087651 1399.27569814 -833.10757446 1395.43841553 C-842.0872591 1391.12162411 -851.01289581 1386.71006274 -859.90771484 1382.22021484 C-868.09532537 1378.09206455 -876.33167744 1374.17469969 -884.72583008 1370.48681641 C-891.7544008 1367.36929949 -898.60972402 1363.93975202 -905.47021484 1360.47021484 C-913.54490549 1356.38867035 -921.63785072 1352.45657809 -929.93383789 1348.84667969 C-937.68908832 1345.47081251 -945.31036358 1341.8253162 -952.94091797 1338.17822266 C-955.35883588 1337.02622521 -957.78090639 1335.88346492 -960.20458984 1334.74365234 C-961.81398759 1333.98588816 -963.42336277 1333.22807604 -965.03271484 1332.47021484 C-965.81396729 1332.10299316 -966.59521973 1331.73577148 -967.40014648 1331.35742188 C-971.27242474 1329.52694911 -975.11405963 1327.65514299 -978.91943359 1325.68896484 C-979.64493408 1325.31586182 -980.37043457 1324.94275879 -981.11791992 1324.55834961 C-982.4779737 1323.85439424 -983.83364485 1323.14187763 -985.18383789 1322.41918945 C-992.12667746 1318.82577971 -995.25280792 1318.95011769 -1000.34521484 1325.03271484 Z M1031.9831543 1336.88623047 C1027.2978526 1339.25675255 1022.55441648 1341.46947597 1017.7746582 1343.64257812 C1001.71791347 1350.94331313 985.89664774 1358.70911479 970.07104492 1366.49560547 C964.26966499 1369.34959724 958.4642647 1372.19524654 952.65478516 1375.03271484 C951.648974 1375.52439148 950.64316284 1376.01606812 949.60687256 1376.52264404 C929.86839681 1386.14773462 929.86839681 1386.14773462 919.72753906 1389.85058594 C913.98071222 1392.06146593 908.44280658 1394.74325637 902.88110352 1397.37915039 C900.8568072 1398.33833378 898.82936419 1399.29057753 896.80126953 1400.24169922 C888.17713148 1404.29792939 879.63638038 1408.50559186 871.12442017 1412.79135132 C866.03490684 1415.34959826 860.93773299 1417.89256525 855.84228516 1420.43896484 C853.506321 1421.60688029 851.17038391 1422.77484985 848.83447266 1423.94287109 C847.64144046 1424.53939133 846.4484066 1425.13590825 845.25537109 1425.73242188 C844.66171753 1426.02924866 844.06806396 1426.32607544 843.4564209 1426.63189697 C840.75531006 1427.98245239 840.75531006 1427.98245239 838.05419922 1429.33300781 C837.46221048 1429.62900249 836.87022175 1429.92499718 836.26029396 1430.2299614 C834.48825887 1431.11597799 832.71622112 1432.00198926 830.94418335 1432.88800049 C828.64096474 1434.0396199 826.33776221 1435.1912715 824.03457642 1436.34295654 C819.33852636 1438.69113289 814.64242694 1441.03920727 809.9453125 1443.38525391 C804.26994944 1446.22030156 798.59672063 1449.0593149 792.9336853 1451.91893005 C778.86044468 1459.02485252 764.76075757 1465.99054654 750.40576172 1472.51513672 C738.06593961 1478.15641636 725.97546273 1484.29136397 713.86767578 1490.41015625 C709.8442662 1492.44203923 705.81324193 1494.45837331 701.77978516 1496.47021484 C698.16828585 1498.2733485 694.55866898 1500.08003975 690.95556641 1501.89990234 C676.11943884 1509.38043005 661.16679755 1516.63118563 645.96728516 1523.34521484 C637.86161957 1526.93334467 629.94027157 1530.84763435 622.02978516 1534.84521484 C612.0511374 1539.88764174 601.99518921 1544.70766424 591.81884766 1549.34130859 C581.28068176 1554.15802771 570.87056126 1559.22852159 560.47241211 1564.33886719 C554.00062979 1567.50924036 547.50980044 1570.56509979 540.88525391 1573.40380859 C532.30887131 1577.09142683 523.99448423 1581.26448971 515.66748047 1585.47949219 C511.26042402 1587.70976023 506.84634509 1589.92603453 502.43212891 1592.14208984 C501.57279755 1592.57372437 500.71346619 1593.00535889 499.82809448 1593.45007324 C492.42278096 1597.16317164 484.96749646 1600.75846079 477.47753906 1604.29785156 C470.9227696 1607.40261395 464.44105371 1610.63784153 457.96728516 1613.90771484 C392.03046005 1647.10656199 392.03046005 1647.10656199 366.58447266 1647.23583984 C365.70759796 1647.24153992 364.83072327 1647.24723999 363.92727661 1647.25311279 C362.07311195 1647.26253995 360.2189307 1647.26908767 358.36474609 1647.27294922 C355.56007731 1647.2826105 352.75615583 1647.31363713 349.95166016 1647.34521484 C340.68496245 1647.40008375 332.4854481 1647.14204805 323.65478516 1644.03271484 C322.29874488 1643.6834604 320.9381011 1643.35141468 319.57275391 1643.04052734 C281.84995103 1634.11345567 256.77090068 1613.35019966 234.34326172 1582.35449219 C232.84484352 1580.29405884 231.33049712 1578.24757575 229.80322266 1576.20849609 C220.01971661 1563.12093476 210.97552767 1549.50446225 202.40478516 1535.59521484 C196.38362919 1525.83725301 189.70905104 1516.62798186 182.65478516 1507.59521484 C178.63826017 1502.45218011 174.97759137 1497.13470759 171.39819336 1491.68041992 C168.25705229 1486.90180403 164.98181766 1482.24122985 161.63110352 1477.60791016 C157.30718094 1471.60391686 153.16169601 1465.47942081 149.0324707 1459.34033203 C148.50693604 1458.56463867 147.98140137 1457.78894531 147.43994141 1456.98974609 C146.74203491 1455.95297729 146.74203491 1455.95297729 146.0300293 1454.89526367 C144.69614794 1453.08873413 143.25647337 1451.599905 141.65478516 1450.03271484 C141.54334189 1536.30992239 141.43197118 1622.58713151 141.28408813 1751.10694885 C141.28238526 1752.60656588 141.28068238 1754.1061829 141.27897949 1755.60579993 C141.24324513 1787.08260178 141.20792435 1818.55940408 141.17308139 1850.03620692 C141.15557838 1865.8478593 141.1379959 1881.65951158 141.12033826 1897.47116378 C141.11767512 1899.85630375 141.11501425 1902.24144373 141.11235348 1904.6265837 C141.0713574 1941.35785062 141.02865592 1978.08911458 140.98101807 2014.82037354 C140.97999371 2015.61023171 140.97896935 2016.40008988 140.97791395 2017.21388315 C140.96138774 2029.94887489 140.9447185 2042.68386644 140.92803029 2055.41885797 C140.87996993 2092.09600054 140.83296574 2128.77314308 140.79296303 2165.45029545 C140.79214002 2166.2044077 140.79131702 2166.95851995 140.79046908 2167.73548409 C140.77242187 2184.28940954 140.75491867 2200.84333551 140.73793067 2217.39726208 C140.73108586 2224.05783626 140.72416272 2230.71841037 140.71721268 2237.37898445 C140.71645391 2238.10795878 140.71569514 2238.83693311 140.71491339 2239.58799756 C140.6904201 2263.08214335 140.65954911 2286.57627546 140.62533816 2310.07040894 C140.5899528 2334.39165487 140.56164722 2358.7128988 140.54161261 2383.03416239 C140.52983377 2397.062859 140.51241663 2411.09152261 140.48702815 2425.12020132 C140.4706327 2434.48281161 140.46148344 2443.84541059 140.45830198 2453.20803465 C140.45627769 2458.54817416 140.45103103 2463.88825819 140.43697362 2469.22838073 C140.42425229 2474.08445325 140.42074271 2478.94044108 140.4246446 2483.7965279 C140.42442336 2485.54431416 140.42081914 2487.29210404 140.41345292 2489.0398748 C139.53657053 2503.09999608 139.53657053 2503.09999608 144.77978516 2515.22021484 C150.9314594 2516.95873148 157.16314282 2513.51595147 162.54931641 2510.68896484 C163.17421463 2510.36390961 163.79911285 2510.03885437 164.44294739 2509.70394897 C166.45529602 2508.65475031 168.4611884 2507.59381007 170.46728516 2506.53271484 C171.87295642 2505.79770651 173.27904743 2505.06350041 174.68554688 2504.33007812 C180.43516373 2501.32718417 186.16969622 2498.2962712 191.89306641 2495.24365234 C214.9880295 2482.93303289 238.77187072 2471.2472705 263.02978516 2461.40771484 C270.44520966 2458.3799269 277.52216434 2454.66408808 284.65478516 2451.03271484 C311.02045119 2437.69070382 337.69902052 2424.82707577 364.73364258 2412.89477539 C377.46012944 2407.2708617 389.92099825 2401.09875578 402.39819336 2394.94628906 C410.56499636 2390.92934253 418.75420333 2387.04189573 427.11352539 2383.44116211 C432.95779351 2380.92145548 438.68570331 2378.19740438 444.40478516 2375.40771484 C453.49140195 2371.00990424 462.61600225 2366.70483589 471.77978516 2362.47021484 C483.28552151 2357.15092025 494.73054071 2351.7145496 506.15771484 2346.22900391 C517.77104283 2340.66532507 529.46080842 2335.2678735 541.15698242 2329.88110352 C549.11032553 2326.21538158 557.04852652 2322.51836807 564.98092651 2318.80764771 C575.09188732 2314.07799362 585.21871603 2309.38867801 595.39013672 2304.79003906 C604.0329126 2300.87672021 612.63236607 2296.87155288 621.23291016 2292.86645508 C629.5901752 2288.97896624 637.96852154 2285.14122941 646.37744141 2281.36669922 C650.48869782 2279.51241216 654.55440996 2277.60096713 658.58056641 2275.56787109 C663.89396338 2272.88637262 669.29561573 2270.42357574 674.71728516 2267.97021484 C683.18721997 2264.11713459 691.595174 2260.15611038 699.96728516 2256.09521484 C709.56496361 2251.45221363 719.24814105 2247.04472468 729.00341797 2242.74389648 C742.96678136 2236.58645491 756.85089897 2230.25600765 770.73040771 2223.91223145 C772.55868237 2223.07663762 774.38724344 2222.24167054 776.21582031 2221.40673828 C791.71613509 2214.3212657 807.09925555 2207.01204175 822.43994141 2199.58789062 C835.35865354 2193.33848325 848.30342932 2187.15312856 861.34228516 2181.15771484 C862.29772217 2180.71733887 863.25315918 2180.27696289 864.23754883 2179.82324219 C869.99372791 2177.18998447 875.79658608 2174.703195 881.64575195 2172.28417969 C903.49525546 2163.19691356 924.68649029 2152.73485812 945.87963867 2142.23095703 C956.34919243 2137.0507528 966.84763452 2131.98853407 977.49072266 2127.17333984 C985.38748686 2123.59346498 993.06483257 2119.94180968 1000.46728516 2115.40771484 C1001.37269043 2114.86123291 1002.2780957 2114.31475098 1003.2109375 2113.75170898 C1009.86355524 2109.66901152 1015.95513244 2105.39440739 1021.65478516 2100.03271484 C1022.13560547 2099.59137207 1022.61642578 2099.1500293 1023.11181641 2098.6953125 C1041.40992893 2081.80430167 1051.06212072 2061.60077003 1054.65478516 2037.03271484 C1054.73680729 2034.86579301 1054.76883459 2032.6966446 1054.76221561 2030.52818108 C1054.76072331 2029.22862089 1054.759231 2027.9290607 1054.75769347 2026.5901199 C1054.75090987 2025.15349382 1054.74403396 2023.71686817 1054.73707581 2022.28024292 C1054.73337868 2020.74665548 1054.73012981 2019.2130669 1054.7272895 2017.67947763 C1054.71818364 2013.45867123 1054.70274413 2009.23790789 1054.68630621 2005.01712455 C1054.66963616 2000.44789476 1054.65887697 1995.87865062 1054.64741707 1991.30940533 C1054.62664922 1983.34343527 1054.60220348 1975.37748323 1054.57535362 1967.41153145 C1054.53599569 1955.71916405 1054.5026282 1944.02678525 1054.47078568 1932.33439524 C1054.42126462 1914.17937974 1054.36847612 1896.02437572 1054.31317943 1877.86937695 C1054.22324819 1848.33814687 1054.14149697 1818.80689856 1054.06347656 1789.27563477 C1054.06039545 1788.10945924 1054.05731433 1786.94328371 1054.05413985 1785.74176954 C1054.01698874 1771.66612047 1053.98024751 1757.59047035 1053.9437817 1743.51481949 C1053.92559725 1736.49814597 1053.90728768 1729.48147279 1053.88886937 1722.46479988 C1053.6957469 1648.87991122 1053.53596754 1575.29525076 1053.5312373 1501.71008205 C1053.53059554 1493.75193008 1053.52720505 1485.79378284 1053.52249146 1477.83563232 C1053.51603097 1466.40145759 1053.51502348 1454.96729358 1053.52062631 1443.53311825 C1053.52151576 1441.62577542 1053.52221846 1439.71843249 1053.52272391 1437.81108952 C1053.52825676 1418.39743228 1053.60709952 1398.99128346 1053.99169922 1379.58105469 C1054.01371238 1378.43775926 1054.01371238 1378.43775926 1054.03617024 1377.27136695 C1054.28866396 1364.16232927 1054.28866396 1364.16232927 1054.46068954 1358.03273964 C1054.56309639 1354.37430213 1054.64914155 1350.71577634 1054.73339844 1347.05688477 C1054.77036457 1345.99831709 1054.8073307 1344.93974941 1054.84541702 1343.84910393 C1055.04594852 1336.92577351 1055.04594852 1336.92577351 1051.65478516 1331.03271484 C1045.36773615 1328.24951528 1037.51621144 1334.06519087 1031.9831543 1336.88623047 Z " fill="#000000" transform="translate(1470.34521484375,104.96728515625)"/>
<path d="M0 0 C1.90700684 0.25740967 1.90700684 0.25740967 3.85253906 0.52001953 C56.59528983 7.71689563 115.6536713 23.02462352 155 61 C155.63679688 61.61101562 156.27359375 62.22203125 156.9296875 62.8515625 C164.58599048 70.84814561 169.95556034 81.96691927 171 93 C171.08121094 93.67675781 171.16242187 94.35351562 171.24609375 95.05078125 C172.54200606 115.90318849 159.17482417 134.39061144 146.1875 149.2421875 C135.41259667 161.31644934 123.47459017 171.88118664 110.65625 181.72119141 C108.01459359 183.76084298 105.41032882 185.84214596 102.8125 187.9375 C101.95269531 188.62714844 101.09289063 189.31679688 100.20703125 190.02734375 C98.11628438 191.89606441 96.51092191 193.64256809 95 196 C95 196.66 95 197.32 95 198 C100.29697618 199.21286899 104.85744218 198.77231625 110.171875 198.109375 C112.03147251 197.89336836 113.89109267 197.67755672 115.75073242 197.46191406 C117.2164418 197.28746765 117.2164418 197.28746765 118.71176147 197.10949707 C135.51099067 195.12174212 152.3126667 193.43722615 169.1875 192.25 C170.39992371 192.16220276 170.39992371 192.16220276 171.63684082 192.07263184 C177.42172956 191.65767203 183.2084669 191.30808439 189 191 C189.89207153 190.9516098 190.78414307 190.9032196 191.70324707 190.85336304 C216.07060677 189.59490154 240.48312013 189.79957222 264.875 189.8125 C266.56376188 189.81290031 266.56376188 189.81290031 268.28664017 189.81330872 C301.15014241 189.82309227 333.96379775 189.90737877 366.78234863 191.81317139 C370.27098481 192.01573437 373.75998633 192.21120867 377.24902344 192.40673828 C590.11936869 204.48487466 590.11936869 204.48487466 615 231 C619.18164139 235.74206755 619.68232164 240.80947026 619.4375 246.9453125 C618.08176439 256.41125217 612.17079555 263.08174516 605 269 C594.8196492 276.5531635 583.5783818 281.93697526 572 287 C571.26797363 287.32242676 570.53594727 287.64485352 569.78173828 287.97705078 C516.28334751 311.16494481 453.97135893 305.44503865 397.2409749 301.62305737 C393.2013294 301.35237172 389.16124329 301.0885811 385.12115729 300.82456481 C334.39398021 297.50750683 283.68713051 293.88350313 232.9798584 290.27746582 C220.9025016 289.41867376 208.82500885 288.5618872 196.74711931 287.71061635 C191.62965525 287.34975855 186.51230914 286.98740108 181.39525223 286.62081146 C161.41661511 285.19001101 141.44060846 283.84598612 121.43505859 282.84863281 C120.23447685 282.78847874 120.23447685 282.78847874 119.00964093 282.72710943 C27.27142047 278.18145058 -58.72578858 282.75682986 -173.91381836 335.02172852 C-175.98660258 335.99371756 -178.06807911 336.94511545 -180.15039062 337.89648438 C-181.42890325 338.49759776 -182.70692523 339.0997562 -183.984375 339.703125 C-185.10038086 340.22036133 -186.21638672 340.73759766 -187.36621094 341.27050781 C-190.37828719 343.24840438 -191.06850589 344.57577519 -192 348 C-188.92665569 351.4413816 -185.94461522 353.21810573 -181.76953125 355.14453125 C-181.15537354 355.43070816 -180.54121582 355.71688507 -179.90844727 356.01173401 C-177.88033667 356.95395512 -175.84660294 357.8832948 -173.8125 358.8125 C-172.37103331 359.47867077 -170.92987661 360.14551267 -169.48901367 360.81298828 C-164.9988192 362.88882723 -160.50037742 364.94634896 -156 367 C-154.96093506 367.47460663 -154.96093506 367.47460663 -153.90087891 367.95880127 C-147.15020649 371.04169176 -140.39406231 374.11239821 -133.63374329 377.17407227 C-123.94839408 381.56107508 -114.28420426 385.99326966 -104.625 390.4375 C-92.54794157 395.99295633 -80.46620639 401.53789697 -68.375 407.0625 C-67.6568512 407.3906369 -66.93870239 407.7187738 -66.1987915 408.05685425 C-62.58021823 409.71015827 -58.96152345 411.36319613 -55.34277344 413.01611328 C-50.98075134 415.00863432 -46.61921529 417.00221754 -42.2578125 418.99609375 C-41.53490021 419.32656708 -40.81198792 419.65704041 -40.06716919 419.99752808 C-36.4282451 421.66108692 -32.78945774 423.32494396 -29.15087891 424.98925781 C-21.71282172 428.39107744 -14.27243867 431.78767299 -6.828125 435.17578125 C43.66839016 458.16535608 43.66839016 458.16535608 53 465 C54.29744141 465.93392578 54.29744141 465.93392578 55.62109375 466.88671875 C62.6702926 472.21813363 69.22434802 478.38769667 72 487 C73.08982417 496.18747119 71.63749777 502.09937114 66.22265625 509.39453125 C46.42791472 533.39150841 7.56964848 544.42107131 -22 549 C-23.0837793 549.17354004 -23.0837793 549.17354004 -24.18945312 549.35058594 C-53.17078724 553.81027068 -82.89329264 550.91002311 -111 543 C-111.87930176 542.75749512 -112.75860352 542.51499023 -113.66455078 542.26513672 C-131.34505765 537.2558188 -147.6004233 529.35139442 -164.07051086 521.35417175 C-171.28154754 517.85317585 -178.53137143 514.4383984 -185.79077148 511.03909302 C-189.29997376 509.39480957 -192.8063092 507.74444309 -196.3125 506.09375 C-197.01693237 505.76214371 -197.72136475 505.43053741 -198.44714355 505.08888245 C-208.53404422 500.33826886 -218.60753074 495.55929159 -228.68261719 490.78369141 C-239.49277719 485.65987278 -250.30687386 480.54447801 -261.125 475.4375 C-262.23316071 474.91435715 -262.23316071 474.91435715 -263.3637085 474.38064575 C-267.08648205 472.62325331 -270.80933604 470.86603136 -274.53222656 469.10888672 C-282.77294328 465.21927744 -291.0126578 461.32754531 -299.25256348 457.43621826 C-301.50430705 456.3728305 -303.75605715 455.30945658 -306.0078125 454.24609375 C-306.75071533 453.89526733 -307.49361816 453.54444092 -308.2590332 453.1829834 C-312.73869121 451.06760284 -317.21857407 448.95269932 -321.69863892 446.83818054 C-325.42416874 445.07978163 -329.14960802 443.32119094 -332.875 441.5625 C-333.61361267 441.21381866 -334.35222534 440.86513733 -335.11322021 440.50588989 C-347.59096757 434.61489427 -360.06108869 428.7078895 -372.52972412 422.79763794 C-384.37189321 417.18501068 -396.22436706 411.59471636 -408.08453369 406.02023315 C-420.20637661 400.32218383 -432.31319313 394.59281506 -444.41601562 388.85449219 C-455.60208996 383.55129662 -466.79633087 378.26591804 -478 373 C-489.96803841 367.37456321 -501.92529354 361.7267743 -513.875 356.0625 C-526.28760526 350.1788728 -538.70317151 344.30163256 -551.125 338.4375 C-551.86443848 338.08840576 -552.60387695 337.73931152 -553.36572266 337.37963867 C-558.57699067 334.91942483 -563.78846763 332.45965379 -569 330 C-592.97838604 318.68307364 -616.95618857 307.36488657 -640.90844727 295.99273682 C-642.8898307 295.05229087 -644.87161926 294.11270425 -646.85351562 293.17333984 C-682.89803427 276.07340195 -682.89803427 276.07340195 -693 267 C-693.66773438 266.42507813 -694.33546875 265.85015625 -695.0234375 265.2578125 C-700.49743835 260.24575265 -703.54365218 254.78116762 -704.4375 247.375 C-703.17587728 237.64248185 -696.85963894 230.0376072 -689.50390625 223.91015625 C-679.72305295 216.44863166 -669.47094869 210.3859099 -658.36767578 205.12646484 C-655.7666245 203.88896736 -653.17808372 202.62734746 -650.58984375 201.36328125 C-637.60083993 195.04328744 -624.49482237 189.00544628 -611.3347168 183.05371094 C-600.1523501 177.99388316 -589.0075244 172.85599441 -577.875 167.6875 C-576.13297569 166.87890532 -574.39095095 166.07031158 -572.64892578 165.26171875 C-570.02673443 164.04453778 -567.40455238 162.82733685 -564.78244019 161.60998535 C-555.65278435 157.37247634 -546.51464068 153.15342077 -537.375 148.9375 C-536.57537842 148.56862671 -535.77575684 148.19975342 -534.9519043 147.81970215 C-531.72469258 146.33098285 -528.49745646 144.8423165 -525.2701416 143.3538208 C-519.57517665 140.727089 -513.88112695 138.09838061 -508.1875 135.46875 C-491.53442843 127.77801248 -474.87547267 120.10038926 -458.20544434 112.44647217 C-447.15526616 107.37253064 -436.11016878 102.28771259 -425.07034302 97.19128418 C-422.62768466 96.06373926 -420.18482677 94.93662754 -417.74194336 93.80957031 C-410.32408332 90.38646953 -402.90820341 86.95924712 -395.49880981 83.51785278 C-319.70321581 48.31466313 -243.28916799 16.79052255 -136.11907959 0.25714111 C-134.73987571 0.08978071 -133.36098733 -0.08020764 -131.98248291 -0.25323486 C-89.25301281 -5.61012167 -42.6389022 -6.04159175 0 0 Z M-362.35229492 158.53393555 C-371.55396938 162.87234048 -380.79479445 167.11712885 -390.0625 171.3125 C-406.42262799 178.72040167 -422.7333582 186.2329412 -439.03060913 193.77807617 C-443.51633494 195.85408395 -448.00528108 197.92283109 -452.49842834 199.98272705 C-455.12214549 201.18603232 -457.74423919 202.39284665 -460.36605835 203.60028076 C-462.1349019 204.41332347 -463.90592094 205.22162799 -465.67700195 206.02978516 C-466.725896 206.51366699 -467.77479004 206.99754883 -468.85546875 207.49609375 C-469.75934326 207.91044678 -470.66321777 208.3247998 -471.59448242 208.75170898 C-473.97882266 209.98901048 -475.98769999 211.21943841 -478 213 C-478.91738597 215.91249553 -478.91738597 215.91249553 -478 219 C-471.66380228 224.48633514 -463.83909167 227.44867401 -456.25 230.8125 C-454.78134492 231.47055835 -453.31309116 232.129513 -451.84521484 232.78930664 C-448.77461272 234.16914519 -445.70265146 235.54589202 -442.62988281 236.92089844 C-436.00149044 239.89195947 -429.39805077 242.91739847 -422.7946167 245.94342041 C-419.8709649 247.2829854 -416.94642193 248.62059874 -414.0218811 249.95822144 C-412.54932765 250.63173916 -411.07681379 251.30534344 -409.6043396 251.97903442 C-404.50789333 254.31076629 -399.41044052 256.64028709 -394.3125 258.96875 C-392.14064942 259.96088154 -389.96881678 260.95305235 -387.79699707 261.94525146 C-386.35065318 262.60599481 -384.90428279 263.26668016 -383.45788574 263.92730713 C-375.11670683 267.73750135 -366.78057078 271.55831183 -358.453125 275.3984375 C-350.00071581 279.29614895 -341.54280061 283.18161799 -333.0770874 287.050354 C-331.71941003 287.67108517 -330.36201648 288.29243758 -329.00494385 288.91448975 C-324.90654039 290.79303818 -320.79990908 292.65223858 -316.6875 294.5 C-315.70442871 294.95093018 -314.72135742 295.40186035 -313.70849609 295.86645508 C-306.40905283 299.11316374 -300.91718713 301.21723504 -293.125 298.578125 C-285.80202545 295.63585844 -278.6535896 292.26237037 -271.50598145 288.92132568 C-268.05633657 287.30892043 -264.60201491 285.70664654 -261.14801025 284.10360718 C-259.36827218 283.27747936 -257.58877277 282.4508372 -255.80950928 281.62368774 C-247.30598964 277.67158302 -238.7808957 273.76757619 -230.25 269.875 C-228.80629245 269.21570716 -227.3626076 268.55636461 -225.91894531 267.89697266 C-220.89776967 265.60386575 -215.87588758 263.31230774 -210.85400391 261.02075195 C-187.54368684 250.38346489 -164.24965408 239.71158304 -141.00579834 228.9296875 C-139.20460231 228.09483317 -137.40241299 227.26212267 -135.60009766 226.4296875 C-122.97317436 220.58871852 -110.73252577 214.20303486 -98.58105469 207.42871094 C-96.18185281 206.10066238 -93.77071474 204.79906752 -91.3515625 203.5078125 C-68.16636484 191.05301731 -37.45013048 174.27761673 -27.625 148.375 C-26.10359591 140.15941792 -26.75450689 133.80716855 -31.453125 126.84765625 C-49.60355728 104.39636067 -84.80774463 95.82761632 -112.07470703 92.640625 C-202.52508652 83.30524564 -282.7265764 120.97078724 -362.35229492 158.53393555 Z " fill="#000000" transform="translate(1553,448)"/>
</svg>
